<?xml version="1.0" encoding="iso-8859-1"?>
<!-- Generator: Adobe Illustrator 19.0.0, SVG Export Plug-In . SVG Version: 6.00 Build 0)  -->
<svg version="1.1" id="Capa_1" xmlns="http://www.w3.org/2000/svg" xmlns:xlink="http://www.w3.org/1999/xlink" x="0px" y="0px"
	 viewBox="0 0 437.29 437.29" style="enable-background:new 0 0 437.29 437.29;" xml:space="preserve">
<path style="fill:#4DCFE0;" d="M348.212,0H89.078c-8.882,0-15.673,6.792-15.673,15.673v332.278c0,8.882,6.792,15.673,15.673,15.673
	h77.845l1.045-16.718H268.8l1.045,16.718h78.367c8.882,0,15.673-6.792,15.673-15.673V15.673C363.886,6.792,357.094,0,348.212,0z"/>
<g>
	<path style="fill:#00BBD3;" d="M182.073,76.278c-8.882,0-15.673,6.792-15.673,15.673s6.792,15.673,15.673,15.673h73.143
		c8.882,0,15.673-6.792,15.673-15.673s-6.792-15.673-15.673-15.673H182.073z"/>
	<path style="fill:#00BBD3;" d="M304.849,153.6c0-8.882-6.792-15.673-15.673-15.673H148.114c-8.882,0-15.673,6.792-15.673,15.673
		s6.792,15.673,15.673,15.673h141.061C298.057,169.273,304.849,162.482,304.849,153.6z"/>
	<path style="fill:#00BBD3;" d="M268.8,344.294l-2.612-31.869c-2.09,2.09-4.702,4.18-6.792,5.747
		c-12.016,8.882-26.645,14.106-40.751,14.106c-15.151,0-29.257-4.702-41.273-14.106l0,0c-2.09-2.09-4.702-3.657-6.792-5.747
		l-2.612,32.392l-1.045,16.718l-4.18,56.947c0,0.522,0,0.522,0,1.045c0,7.314,4.18,13.584,10.971,16.196
		c2.09,1.045,4.702,1.567,6.792,1.567c4.702,0,8.882-1.567,12.016-5.224c0.522-0.522,1.045-1.045,1.567-2.09l24.033-32.914
		l24.033,32.914c0.522,0.522,1.045,1.045,1.567,2.09c4.702,4.702,12.539,6.269,18.808,3.657c6.792-2.612,10.971-9.404,10.971-16.196
		c0-0.522,0-0.522,0-1.045l-4.18-56.947L268.8,344.294z"/>
</g>
<path style="fill:#D4E1F4;" d="M177.371,320.784L177.371,320.784c12.539,9.404,26.645,14.106,41.273,14.106
	c14.106,0,28.735-5.224,40.751-14.106c2.612-1.567,4.702-3.657,6.792-5.747c12.539-12.016,19.853-29.257,19.853-47.543
	c0-37.094-30.302-67.396-67.396-67.396s-67.396,30.302-67.396,67.396c0,17.763,6.792,34.482,19.331,47.02
	C172.669,316.604,174.759,318.694,177.371,320.784z"/>
<g>
</g>
<g>
</g>
<g>
</g>
<g>
</g>
<g>
</g>
<g>
</g>
<g>
</g>
<g>
</g>
<g>
</g>
<g>
</g>
<g>
</g>
<g>
</g>
<g>
</g>
<g>
</g>
<g>
</g>
</svg>
