<svg height="512pt" viewBox="0 0 512 512" width="512pt" xmlns="http://www.w3.org/2000/svg" xmlns:xlink="http://www.w3.org/1999/xlink"><linearGradient id="a" gradientUnits="userSpaceOnUse" x1="0" x2="512" y1="256" y2="256"><stop offset="0" stop-color="#00f1ff"/><stop offset=".231" stop-color="#00d8ff"/><stop offset=".5138" stop-color="#00c0ff"/><stop offset=".7773" stop-color="#00b2ff"/><stop offset="1" stop-color="#00adff"/></linearGradient><path d="m512 256c0 141.386719-114.613281 256-256 256s-256-114.613281-256-256 114.613281-256 256-256 256 114.613281 256 256zm0 0" fill="url(#a)"/><g fill="#fff"><path d="m407.25 332.523438c8.285156 0 15-6.714844 15-15v-103.824219c0-29.472657-23.976562-53.453125-53.453125-53.453125h-43.960937v-17.042969c0-29.476563-23.980469-53.453125-53.453126-53.453125h-128.179687c-29.476563 0-53.453125 23.976562-53.453125 53.453125v238.414063c0 22.40625 18.226562 40.636718 40.636719 40.636718h51.269531c8.285156 0 15-6.71875 15-15v-37.554687h21.269531v37.554687c0 8.28125 6.71875 15 15 15h148.6875c22.40625 0 40.636719-18.230468 40.636719-40.636718 0-8.285157-6.714844-15-15-15-8.28125 0-15 6.714843-15 15 0 5.863281-4.769531 10.636718-10.636719 10.636718h-58.191406c.921875-3.394531 1.414063-6.957031 1.414063-10.636718v-191.371094h43.960937c12.933594 0 23.453125 10.523437 23.453125 23.453125v103.828125c0 8.28125 6.71875 14.996094 15 14.996094zm-112.414062 49.089843c0 5.867188-4.773438 10.636719-10.636719 10.636719h-36.269531v-37.554688c0-8.28125-6.71875-15-15-15h-51.273438c-8.285156 0-15 6.71875-15 15v37.554688h-36.269531c-5.863281 0-10.636719-4.769531-10.636719-10.636719v-238.410156c0-12.933594 10.519531-23.453125 23.453125-23.453125h128.179687c12.933594 0 23.453126 10.519531 23.453126 23.453125zm0 0"/><path d="m194.472656 239.335938h25.636719v25.636718h-25.636719zm0 0"/><path d="m245.746094 239.335938h25.636718v25.636718h-25.636718zm0 0"/><path d="m143.203125 239.335938h25.636719v25.636718h-25.636719zm0 0"/><path d="m194.472656 290.609375h25.636719v25.632813h-25.636719zm0 0"/><path d="m245.746094 290.609375h25.636718v25.632813h-25.636718zm0 0"/><path d="m344.441406 239.335938h25.636719v25.636718h-25.636719zm0 0"/><path d="m344.441406 290.609375h25.636719v25.632813h-25.636719zm0 0"/><path d="m344.441406 341.878906h25.636719v25.636719h-25.636719zm0 0"/><path d="m143.203125 290.609375h25.636719v25.632813h-25.636719zm0 0"/><path d="m232.929688 160.246094h-10.636719v-10.636719c0-8.28125-6.71875-15-15-15-8.285157 0-15 6.71875-15 15v10.636719h-10.636719c-8.285156 0-15 6.71875-15 15 0 8.285156 6.714844 15 15 15h10.636719v10.636718c0 8.285157 6.714843 15 15 15 8.28125 0 15-6.714843 15-15v-10.636718h10.636719c8.28125 0 15-6.714844 15-15 0-8.28125-6.71875-15-15-15zm0 0"/></g></svg>