<svg height="512" viewBox="0 0 64 64" width="512" xmlns="http://www.w3.org/2000/svg"><rect fill="#57a4ff" height="58" rx="4" width="36" x="14" y="3"/><path d="m14 26v31a4 4 0 0 0 4 4h27.4c-18.02-3.79-31.4-18.006-31.4-35z" fill="#2488ff"/><path d="m27.589 15.53a24 24 0 0 0 -15.178 0l-4.411 1.47v32l4.411-1.47a24 24 0 0 1 15.178 0l4.411 1.47v-32z" fill="#ffcd00"/><path d="m51.589 15.53a24 24 0 0 0 -15.178 0l-4.411 1.47v32l4.411-1.47a24 24 0 0 1 15.178 0l4.411 1.47v-32z" fill="#ffda44"/><path d="m60 20h-4v29l-4.411-1.47a24 24 0 0 0 -15.178 0l-4.411 1.47-4.411-1.47a24 24 0 0 0 -15.178 0l-4.411 1.47v-29h-4v31h56z" fill="#ff3051"/><path d="m21 7a2 2 0 0 0 2 2h18a2 2 0 0 0 2-2v-4h-22z" fill="#6d6e71"/><path d="m21 58h22a1 1 0 0 0 0-2h-22a1 1 0 0 0 0 2z" fill="#6d6e71"/><g fill="#f1f2f2"><path d="m12.138 41.18a23.148 23.148 0 0 1 14.546 0 1 1 0 1 0 .632-1.9 25.146 25.146 0 0 0 -15.811 0 1 1 0 1 0 .633 1.9z"/><path d="m12.138 37.18a23.148 23.148 0 0 1 14.546 0 1 1 0 1 0 .632-1.9 25.146 25.146 0 0 0 -15.811 0 1 1 0 1 0 .633 1.9z"/><path d="m12.138 33.18a23.148 23.148 0 0 1 14.546 0 1 1 0 1 0 .632-1.9 25.146 25.146 0 0 0 -15.811 0 1 1 0 1 0 .633 1.9z"/><path d="m12.138 29.18a23.148 23.148 0 0 1 14.546 0 1 1 0 1 0 .632-1.9 25.146 25.146 0 0 0 -15.811 0 1 1 0 0 0 .633 1.9z"/><path d="m12.138 25.18a23.148 23.148 0 0 1 14.546 0 1 1 0 1 0 .632-1.9 25.146 25.146 0 0 0 -15.811 0 1 1 0 0 0 .633 1.9z"/><path d="m52.5 39.283a25.146 25.146 0 0 0 -15.811 0 1 1 0 1 0 .632 1.9 23.148 23.148 0 0 1 14.546 0 1 1 0 0 0 .633-1.9z"/><path d="m52.5 35.283a25.146 25.146 0 0 0 -15.811 0 1 1 0 1 0 .632 1.9 23.148 23.148 0 0 1 14.546 0 1 1 0 1 0 .633-1.9z"/><path d="m52.5 31.283a25.146 25.146 0 0 0 -15.811 0 1 1 0 1 0 .632 1.9 23.148 23.148 0 0 1 14.546 0 1 1 0 1 0 .633-1.9z"/><path d="m52.5 27.283a25.146 25.146 0 0 0 -15.811 0 1 1 0 1 0 .632 1.9 23.148 23.148 0 0 1 14.546 0 1 1 0 0 0 .633-1.9z"/><path d="m36.051 24.548a1 1 0 0 0 1.265.632 23.148 23.148 0 0 1 14.546 0 1 1 0 0 0 .633-1.9 25.146 25.146 0 0 0 -15.811 0 1 1 0 0 0 -.633 1.268z"/></g></svg>