<svg id="Layer_1" enable-background="new 0 0 128 128" height="512" viewBox="0 0 128 128" width="512" xmlns="http://www.w3.org/2000/svg"><path d="m105.84 13.795h-47.256c-2.155-1.985-5.022-3.208-8.177-3.208h-18.44c-6.661 0-12.08 5.419-12.08 12.08v9.58c0 6.667 5.419 12.09 12.08 12.09h8.496l7.429 5.174v65.63c0 3.458 2.813 6.272 6.272 6.272h51.676c3.459 0 6.272-2.814 6.272-6.272v-95.074c.001-3.459-2.813-6.272-6.272-6.272z" fill="#e6e7e8"/><path d="m101.84 10.795h-47.631c2.028 2.009 3.285 4.794 3.285 7.873v7.987c0 6.897-5.51 12.495-12.366 12.663l1.594 6.949-1.831-1.276v66.151c0 2.912 2.361 5.272 5.272 5.272h51.676c2.912 0 5.272-2.361 5.272-5.272v-95.075c.002-2.912-2.359-5.272-5.271-5.272z" fill="#6dc9f7"/><path d="m99.245 18.234h-41.773c.006.145.022.287.022.433v7.987c0 5.212-3.149 9.678-7.646 11.624v61.156c0 1.608 1.303 2.911 2.911 2.911h46.485c1.608 0 2.911-1.303 2.911-2.911v-78.288c.001-1.608-1.302-2.912-2.91-2.912z" fill="#d4fbff"/><path d="m80.909 13.922h-9.813c-.781 0-1.413.633-1.413 1.413s.633 1.413 1.413 1.413h9.813c.78 0 1.413-.633 1.413-1.413s-.633-1.413-1.413-1.413z" fill="#0089ef"/><circle cx="85.459" cy="15.335" fill="#fa759e" r="1.413"/><path d="m79.423 106.433h-6.842c-1.482 0-2.683 1.201-2.683 2.683s1.201 2.683 2.683 2.683h6.842c1.482 0 2.683-1.201 2.683-2.683s-1.201-2.683-2.683-2.683z" fill="#fa759e"/><path d="m91.067 64.767h-30.13c-1 0-1.81.81-1.81 1.81v8.38c0 1 .81 1.81 1.81 1.81h30.13c1 0 1.81-.81 1.81-1.81v-8.38c0-1-.81-1.81-1.81-1.81z" fill="#6dc9f7"/><path d="m86.505 83.017h-21.005c-1.103 0-1.998.894-1.998 1.997v7.005c0 1.103.894 1.997 1.998 1.997h21.005c1.103 0 1.997-.894 1.997-1.997v-7.005c0-1.103-.894-1.997-1.997-1.997z" fill="#ffd7e5"/><path d="m91.067 24.767h-30.13c-1 0-1.81.81-1.81 1.81v30.13c0 1 .81 1.81 1.81 1.81h30.13c1 0 1.81-.81 1.81-1.81v-30.13c0-1-.81-1.81-1.81-1.81z" fill="#6dc9f7"/><path d="m27.968 7.583h18.441c6.122 0 11.085 4.963 11.085 11.085v7.987c0 6.897-5.509 12.495-12.366 12.663l1.594 6.949-9.944-6.933h-8.81c-6.122 0-11.085-4.963-11.085-11.085v-9.581c0-6.122 4.963-11.085 11.085-11.085z" fill="#fff"/><path d="m57.497 21.667v4.99c0 6.89-5.51 12.49-12.37 12.66l.68 2.97c-.23.01-.45.02-.68.03l.78 3.38-9.13-6.36h-8.81c-6.12 0-11.08-4.97-11.08-11.09v-6.58c0-6.12 4.96-11.08 11.08-11.08h18.44c6.12 0 11.09 4.96 11.09 11.08z" fill="#fa759e"/><g fill="#3a2c60"><path d="m101.84 9.795h-47.255c-2.155-1.984-5.023-3.208-8.178-3.208h-5.083c-.553 0-1 .448-1 1s.447 1 1 1h5.083c5.564 0 10.091 4.521 10.091 10.08v7.99c0 6.38-5.005 11.502-11.395 11.661-.301.007-.581.149-.766.386-.184.237-.252.544-.185.837l1.016 4.424-7.82-5.447c-.167-.117-.367-.18-.571-.18h-8.81c-5.559 0-10.08-4.526-10.08-10.09v-9.58c0-5.558 4.521-10.08 10.08-10.08.553 0 1-.448 1-1s-.447-1-1-1c-6.661 0-12.08 5.419-12.08 12.08v9.58c0 6.667 5.419 12.09 12.08 12.09h8.496l7.428 5.173v65.631c0 3.458 2.813 6.272 6.272 6.272h51.677c3.459 0 6.272-2.814 6.272-6.272v-95.075c.001-3.458-2.813-6.272-6.272-6.272zm4.273 101.346c0 2.356-1.917 4.272-4.272 4.272h-51.677c-2.355 0-4.272-1.917-4.272-4.272v-64.238l.266.185c.171.119.371.179.57.179.195 0 .392-.057.561-.172.343-.232.507-.65.414-1.053l-1.338-5.807c6.895-.764 12.134-6.512 12.134-13.578v-7.99c0-2.553-.802-4.919-2.159-6.872h45.502c2.355 0 4.272 1.917 4.272 4.272v95.074z"/><path d="m32.757 8.587h4.108c.553 0 1-.448 1-1s-.447-1-1-1h-4.108c-.553 0-1 .448-1 1s.448 1 1 1z"/><path d="m79.026 85.016-4.648 4.648-1.231-2.224c-.268-.483-.878-.658-1.359-.391-.483.268-.658.876-.391 1.359l1.875 3.385c.152.275.425.462.735.506.047.006.094.01.14.01.264 0 .519-.104.707-.293l5.587-5.587c.391-.391.391-1.023 0-1.414s-1.024-.39-1.415.001z"/><path d="m24.732 16.92v5.172c0 .552.447 1 1 1s1-.448 1-1v-2.785l6.127 6.029c.267.263.656.355 1.013.237l7.386-2.417 6.059 7.052c-.044.157-.076.319-.076.491 0 1.003.813 1.816 1.816 1.816s1.816-.813 1.816-1.816-.813-1.816-1.816-1.816c-.076 0-.149.013-.223.022l-6.495-7.559c-.264-.307-.684-.424-1.07-.298l-7.441 2.436-5.654-5.563h2.699c.553 0 1-.448 1-1s-.447-1-1-1h-5.141c-.553-.001-1 .447-1 .999z"/></g></svg>