<svg id="Capa_1" enable-background="new 0 0 503.478 503.478" height="512" viewBox="0 0 503.478 503.478" width="512" xmlns="http://www.w3.org/2000/svg"><path d="m299.806 471.002v-52.612h-98.134v52.612l-8.311 24.976h114.756z" fill="#e5eef8"/><path d="m223.213 494.106c0-29.057 23.555-52.612 52.612-52.612h23.981v-23.104h-98.135v52.612l-8.311 24.976h29.229z" fill="#d5e2f3"/><path d="m98.613 126.417h-24.615c-7.996 0-14.478-6.482-14.478-14.478v-12.976c0-7.996 6.482-14.478 14.478-14.478h24.615z" fill="#fdcf8a"/><path d="m441.443 103.002-26.578-18.517h-7.125v41.932h7.125l26.578-18.517c1.704-1.188 1.704-3.71 0-4.898z" fill="#fdcf8a"/><path d="m411.7 84.485h-28.677-262.568-25.842v41.932h25.842 262.568 28.677z" fill="#fd6773"/><path d="m120.455 160.335h-44.432c-9.114 0-16.502 7.388-16.502 16.502v205.995h384.437v-205.995c0-9.114-7.388-16.502-16.502-16.502h-44.432z" fill="#e5eef8"/><path d="m132.241 339.163h238.996c17.527 0 31.786-14.259 31.786-31.785v-147.043h-20-262.568-20v147.043c0 17.527 14.259 31.785 31.786 31.785z" fill="#c5e1ff"/><path d="m383.023 185.335h33.372c1.415 0 2.562 1.147 2.562 2.562v157.375c0 1.415-1.147 2.562-2.562 2.562h-329.312c-1.415 0-2.562-1.147-2.562-2.562v-157.375c0-1.415 1.147-2.562 2.562-2.562h33.372z" fill="#65daf9"/><path d="m383.023 185.335h-262.568-20v122.043c0 17.526 14.259 31.785 31.786 31.785h238.996c17.527 0 31.786-14.259 31.786-31.785v-122.043z" fill="#1acff8"/><path d="m371.237 319.164h-238.996c-6.509 0-11.786-5.277-11.786-11.786v-295.592c0-6.509 5.276-11.786 11.786-11.786h238.996c6.509 0 11.786 5.277 11.786 11.786v295.592c0 6.509-5.277 11.786-11.786 11.786z" fill="#e5eef8"/><path d="m383.023 299.916c-123.823 0-224.201-100.378-224.201-224.201v-75.715h-26.581c-6.509 0-11.786 5.277-11.786 11.786v295.592c0 6.509 5.277 11.786 11.786 11.786h238.996c6.509 0 11.786-5.277 11.786-11.786z" fill="#d5e2f3"/><path d="m371.237 0h-238.996c-6.509 0-11.786 5.277-11.786 11.786v31.859h262.568v-31.859c0-6.509-5.277-11.786-11.786-11.786z" fill="#34d0e0"/><path d="m158.822 0h-26.581c-6.509 0-11.786 5.277-11.786 11.786v31.859h38.367z" fill="#16c6db"/><circle cx="147.445" cy="20.801" fill="#f93442" r="6.774"/><circle cx="175.497" cy="20.801" fill="#fcb64d" r="6.774"/><circle cx="203.548" cy="20.801" fill="#05f2a7" r="6.774"/><path d="m346.154 142.1h-188.83c-4.313 0-7.809-3.496-7.809-7.809v-48.369c0-4.313 3.496-7.809 7.809-7.809h188.831c4.313 0 7.809 3.496 7.809 7.809v48.369c0 4.313-3.497 7.809-7.81 7.809z" fill="#6dd8e6"/><path d="m157.323 142.1h11.493c-6.269-20.251-9.731-41.732-9.964-63.987h-1.529c-4.313 0-7.809 3.496-7.809 7.809v48.369c0 4.313 3.497 7.809 7.809 7.809z" fill="#16c6db"/><path d="m198.039 200.781h-43.016c-3.042 0-5.509-2.466-5.509-5.509v-20.608c0-3.042 2.466-5.509 5.509-5.509h43.016c3.042 0 5.509 2.466 5.509 5.509v20.608c0 3.043-2.466 5.509-5.509 5.509z" fill="#fd6773"/><path d="m155.023 200.781h41.9c-6.732-9.998-12.673-20.572-17.748-31.626h-24.152c-3.042 0-5.509 2.466-5.509 5.509v20.608c0 3.043 2.467 5.509 5.509 5.509z" fill="#fc4d5a"/><path d="m348.455 200.781h-107.517c-3.042 0-5.509-2.466-5.509-5.509v-20.608c0-3.042 2.466-5.509 5.509-5.509h107.517c3.042 0 5.509 2.466 5.509 5.509v20.608c0 3.043-2.467 5.509-5.509 5.509z" fill="#fdcf8a"/><path d="m432.537 422.39h-361.596c-6.307 0-11.42-5.113-11.42-11.42v-38.136h384.437v38.136c-.001 6.307-5.114 11.42-11.421 11.42z" fill="#c5e1ff"/><path d="m330.099 503.478h-156.909c-4.143 0-7.5-3.357-7.5-7.5s3.357-7.5 7.5-7.5h156.909c4.143 0 7.5 3.357 7.5 7.5s-3.357 7.5-7.5 7.5z" fill="#c5e1ff"/><circle cx="250.739" cy="397.611" fill="#99bce4" r="10.207"/><path d="m183.501 239.615h-15.529c-4.143 0-7.5-3.357-7.5-7.5s3.357-7.5 7.5-7.5h15.529c4.143 0 7.5 3.357 7.5 7.5s-3.358 7.5-7.5 7.5z" fill="#cccce2"/><path d="m335.176 239.615h-125.792c-4.143 0-7.5-3.357-7.5-7.5s3.357-7.5 7.5-7.5h125.792c4.143 0 7.5 3.357 7.5 7.5s-3.357 7.5-7.5 7.5z" fill="#dfdfea"/><path d="m215.426 224.615h-6.042c-4.143 0-7.5 3.357-7.5 7.5s3.357 7.5 7.5 7.5h20.681c-5.109-4.77-9.994-9.775-14.639-15z" fill="#cccce2"/><path d="m335.176 269.252h-15.529c-4.143 0-7.5-3.357-7.5-7.5s3.357-7.5 7.5-7.5h15.529c4.143 0 7.5 3.357 7.5 7.5s-3.357 7.5-7.5 7.5z" fill="#dfdfea"/><path d="m293.763 269.252h-125.792c-4.143 0-7.5-3.357-7.5-7.5s3.357-7.5 7.5-7.5h125.792c4.143 0 7.5 3.357 7.5 7.5s-3.357 7.5-7.5 7.5z" fill="#dfdfea"/><path d="m247.415 254.252h-79.443c-4.143 0-7.5 3.357-7.5 7.5s3.357 7.5 7.5 7.5h101.83c-7.774-4.557-15.248-9.569-22.387-15z" fill="#cccce2"/><path d="m183.501 298.889h-15.529c-4.143 0-7.5-3.357-7.5-7.5s3.357-7.5 7.5-7.5h15.529c4.143 0 7.5 3.357 7.5 7.5s-3.358 7.5-7.5 7.5z" fill="#cccce2"/><path d="m335.176 298.889h-125.792c-4.143 0-7.5-3.357-7.5-7.5s3.357-7.5 7.5-7.5h125.792c4.143 0 7.5 3.357 7.5 7.5s-3.357 7.5-7.5 7.5z" fill="#dfdfea"/><path d="m299.649 283.889h-90.265c-4.143 0-7.5 3.357-7.5 7.5s3.357 7.5 7.5 7.5h125.792c2.408 0 4.546-1.139 5.918-2.904-14.345-2.714-28.207-6.789-41.445-12.096z" fill="#cccce2"/></svg>