<svg xmlns="http://www.w3.org/2000/svg" viewBox="0 0 6356 4167" width="846" height="687">
	<defs>
		<clipPath clipPathUnits="userSpaceOnUse" id="cp1">
			<path d="M0 0L6356 0L6356 4167L0 4167Z" />
		</clipPath>
		<linearGradient id="grd1" gradientUnits="userSpaceOnUse"  x1="5265.979" y1="3345" x2="4907.742" y2="2362.944">
			<stop offset="0" stop-color="#ff9f55"  />
			<stop offset="1" stop-color="#ffd255"  />
		</linearGradient>
		<linearGradient id="grd2" gradientUnits="userSpaceOnUse"  x1="2666.188" y1="2611.187" x2="2601.156" y2="2527.455">
			<stop offset="0" stop-color="#ff9f55"  />
			<stop offset="1" stop-color="#ffd255"  />
		</linearGradient>
		<linearGradient id="grd3" gradientUnits="userSpaceOnUse"  x1="2632.25" y1="2797.437" x2="2549.425" y2="2690.793">
			<stop offset="0" stop-color="#ff9f55"  />
			<stop offset="1" stop-color="#ffd255"  />
		</linearGradient>
		<linearGradient id="grd4" gradientUnits="userSpaceOnUse"  x1="2983.625" y1="2719.458" x2="2920.422" y2="2638.079">
			<stop offset="0" stop-color="#ff9f55"  />
			<stop offset="1" stop-color="#ffd255"  />
		</linearGradient>
		<linearGradient id="grd5" gradientUnits="userSpaceOnUse"  x1="2809.229" y1="2750.188" x2="1816.744" y2="1472.281">
			<stop offset="0" stop-color="#ff9f55"  />
			<stop offset="1" stop-color="#ffd255"  />
		</linearGradient>
		<linearGradient id="grd6" gradientUnits="userSpaceOnUse"  x1="3266.958" y1="3339.521" x2="1768.1" y2="1409.619">
			<stop offset="0" stop-color="#ff9f55"  />
			<stop offset="1" stop-color="#ffd255"  />
		</linearGradient>
		<linearGradient id="grd7" gradientUnits="userSpaceOnUse"  x1="3900.813" y1="2187.208" x2="3793.479" y2="1103.131">
			<stop offset="0" stop-color="#ff9f55"  />
			<stop offset="1" stop-color="#ffd255"  />
		</linearGradient>
	</defs>
	<style>
		tspan { white-space:pre }
		.shp0 { fill: #fafafa } 
		.shp1 { fill: url(#grd1) } 
		.shp2 { fill: url(#grd2) } 
		.shp3 { fill: url(#grd3) } 
		.shp4 { fill: url(#grd4) } 
		.shp5 { fill: #98a6b1 } 
		.shp6 { fill: url(#grd5) } 
		.shp7 { fill: url(#grd6) } 
		.shp8 { fill: #706865 } 
		.shp9 { fill: #bdafaa } 
		.shp10 { fill: #ffffff } 
		.shp11 { fill: #ffb955 } 
		.shp12 { fill: #cfcfcf } 
		.shp13 { fill: #eea886 } 
		.shp14 { fill: #db9c7c } 
		.shp15 { fill: #323657 } 
		.shp16 { fill: #4da8f2 } 
		.shp17 { fill: #efaa88 } 
		.shp18 { fill: #424773 } 
		.shp19 { fill: #292c47 } 
		.shp20 { fill: #d88a51 } 
		.shp21 { fill: #e2d2ca } 
		.shp22 { fill: #dfe1e8 } 
		.shp23 { fill: #385369 } 
		.shp24 { fill: url(#grd7) } 
		.shp25 { fill: #ffce55 } 
		.shp26 { fill: #cf8c6c } 
		.shp27 { fill: #555c94 } 
		.shp28 { fill: #354c70 } 
		.shp29 { fill: #deb135 } 
		.shp30 { fill: #f2c344 } 
		.shp31 { fill: #d9d0c4 } 
		.shp32 { fill: #ffb355 } 
		.shp33 { fill: #eea987 } 
		.shp34 { fill: #ffd255 } 
		.shp35 { fill: #3c5780 } 
		.shp36 { fill: #fccca2 } 
		.shp37 { fill: #c48a6f } 
		.shp38 { fill: #e8734d } 
		.shp39 { fill: #293b57 } 
		.shp40 { fill: #ffbb55 } 
		.shp41 { fill: #e09e7f } 
		.shp42 { fill: #665249 } 
		.shp43 { fill: #2e2626 } 
		.shp44 { fill: #2f6b8c } 
		.shp45 { fill: #a77860 } 
		.shp46 { fill: #4b5182 } 
		.shp47 { fill: #22243b } 
		.shp48 { fill: #5c5c5c } 
		.shp49 { fill: #a87860 } 
		.shp50 { fill: #5c5049 } 
		.shp51 { fill: #fab46c } 
		.shp52 { fill: #d4c3bd } 
		.shp53 { fill: #de9673 } 
		.shp54 { fill: #e6d3cc } 
		.shp55 { fill: #ded1c5 } 
		.shp56 { fill: #bc8551 } 
		.shp57 { fill: #23344a } 
		.shp58 { fill: #807066 } 
		.shp59 { fill: #ffd078 } 
		.shp60 { fill: #ffd887 } 
		.shp61 { fill: #ffd989 } 
		.shp62 { fill: #d6d6d6 } 
		.shp63 { fill: #e8e8e8 } 
		.shp64 { fill: #c2c2c2 } 
		.shp65 { fill: #e0e0e0 } 
	</style>
	<g id="Page 1" clip-path="url(#cp1)">
		<path id="Path 1" class="shp0" d="M0 0.33L0 4167L6354.25 4167L6354.25 0.33L0 0.33Z" />
		<path id="Path 2" class="shp1" d="M5231.25 2626.06L5222.44 2465.19L4876.08 2415.15L4822.04 2566.87C4788.92 2570.5 4755.9 2576.13 4723.21 2583.79L4804.83 2970.62C4927.29 2938.94 5059.08 2963.02 5162.69 3037.44L5350.94 2688.1C5312.6 2664 5272.54 2643.33 5231.25 2626.06Z" />
		<path id="Path 3" class="shp2" d="M2415.13 2688.6L2415.13 2671.94C2588.92 2671.94 2743.04 2567.73 2807.75 2406.46L2823.21 2412.67C2755.96 2580.29 2595.77 2688.6 2415.13 2688.6Z" />
		<path id="Path 4" class="shp3" d="M2415.13 2811.75L2415.13 2795.08C2543.29 2795.08 2664.02 2753.15 2764.27 2673.77L2774.62 2686.83C2671.4 2768.56 2547.08 2811.75 2415.13 2811.75Z" />
		<path id="Path 5" class="shp4" d="M2825.25 2840.4L2815.94 2826.6C2928.56 2750.5 3016.96 2644.73 3071.54 2520.71L3086.81 2527.44C3030.94 2654.33 2940.5 2762.54 2825.25 2840.4Z" />
		<path id="Path 6" class="shp5" d="M4115.71 1226.71L3822.69 903.79L3835.02 892.59L4128.04 1215.51L4115.71 1226.71Z" />
		<path id="Path 7" fill-rule="evenodd" class="shp6" d="M2004.32 3133.65L1708.06 2922.81L1774.32 2774.4C1727.25 2717.73 1687.92 2654.88 1657.31 2587.38L1494.67 2582.23L1434.27 2223.71L1586.25 2165.52C1593.03 2091.75 1609.59 2019.47 1635.51 1950.49L1524.29 1831.97L1735.08 1535.71L1883.51 1601.98C1940.13 1554.93 2003.02 1515.59 2070.57 1484.96L2075.73 1322.37L2434.25 1261.91L2492.37 1413.9C2566.17 1420.68 2638.48 1437.24 2707.46 1463.16L2825.98 1351.94L3122.23 1562.73L3055.98 1711.16C3103.06 1767.89 3142.4 1830.77 3173 1898.22L3335.58 1903.38L3395.98 2261.9L3244.06 2320.02C3241.06 2352.46 3236.12 2385 3229.33 2416.9L3227.54 2425.31L2827.58 2326.77L2829 2319.06C2858.4 2158.87 2791.69 1994.39 2659.06 1900.02C2470.06 1765.52 2206.88 1809.87 2072.37 1998.88C1937.9 2187.85 1982.24 2451.04 2171.23 2585.58C2210.73 2613.69 2254.1 2634.54 2300.1 2647.58L2307.46 2649.67L2230.77 3054.71L2222.27 3052.71C2188.73 3044.77 2155.31 3034.6 2122.83 3022.44L2004.32 3133.65ZM1728.84 2917.15L2002.87 3112.17L2119.02 3003.15L2123.9 3005.02C2154.48 3016.71 2185.98 3026.58 2217.65 3034.44L2288.25 2661.48C2243.1 2647.83 2200.52 2626.87 2161.56 2599.15C1965.09 2459.29 1918.99 2185.69 2058.8 1989.21C2198.62 1792.72 2472.23 1746.62 2668.73 1886.44C2804.46 1983.02 2873.77 2150.27 2846.75 2314.33L3214.77 2405C3220.88 2374.77 3225.29 2344 3227.92 2313.4L3228.35 2308.19L3377.29 2251.21L3321.42 1919.6L3162.04 1914.55L3159.92 1909.78C3128.96 1840.35 3088.56 1775.79 3039.88 1717.88L3036.5 1713.88L3101.46 1568.39L2827.44 1373.43L2711.27 1482.44L2706.4 1480.57C2635.77 1453.53 2561.52 1436.53 2485.75 1430.04L2480.54 1429.59L2423.56 1280.62L2091.96 1336.53L2086.9 1495.91L2082.13 1498.03C2012.58 1529.05 1948.02 1569.44 1890.23 1618.08L1886.24 1621.44L1740.75 1556.49L1545.78 1830.52L1654.79 1946.68L1652.93 1951.56C1625.88 2022.18 1608.88 2096.4 1602.39 2172.15L1601.95 2177.35L1452.97 2234.4L1508.84 2566L1668.26 2571.04L1670.39 2575.81C1701.37 2645.29 1741.76 2709.83 1790.43 2767.67L1793.79 2771.67L1728.84 2917.15Z" />
		<path id="Path 8" class="shp7" d="M2065.6 1994.04C2098.92 1947.19 2139.96 1909.05 2185.75 1880.15L1989.8 1536.75C1953.18 1558.77 1918.06 1583.77 1884.86 1611.71L1737.93 1546.11L1636.49 1688.67L1535.06 1831.23L1645.17 1948.58C1617.43 2021.04 1600.55 2096.08 1594.1 2171.44L1443.62 2229.04L1472.72 2401.58L1501.78 2574.1L1662.77 2579.21C1693.62 2648.31 1734.11 2713.69 1784.07 2773.04L1718.46 2919.98L1861.02 3021.48L2003.62 3122.92L2120.94 3012.81C2154.85 3025.75 2189.33 3036.38 2224.21 3044.58L2297.85 2655.6C2251.96 2642.63 2207.48 2621.6 2166.4 2592.38C1973.36 2454.96 1928.22 2187.08 2065.6 1994.04ZM3357.6 2084.02L3328.52 1911.48L3167.52 1906.38C3136.71 1837.27 3096.15 1771.87 3046.27 1712.51L3111.87 1565.57L2826.71 1362.67L2709.4 1472.78C2679.77 1461.44 2649.73 1451.92 2619.4 1444.2L2546.9 1834.41C2587.67 1847.55 2627.15 1867.09 2663.9 1893.25C2804.19 1993.05 2866.37 2161.73 2837.23 2320.56L3221.19 2415.15C3228.31 2381.67 3233.33 2347.92 3236.23 2314.1L3386.65 2256.54L3357.6 2084.02Z" />
		<path id="Path 9" class="shp8" d="M2352.77 3740.69L2335.02 3740.69L2335.02 2933.77L2352.77 2933.77L2352.77 3740.69ZM1953.96 3740.69L1936.21 3740.69L1936.21 2933.77L1953.96 2933.77L1953.96 3740.69Z" />
		<path id="Path 10" class="shp9" d="M2377.71 3607.52L1900.15 3607.52C1870.72 3607.52 1846.87 3583.65 1846.87 3554.23L1846.87 2649.94C1846.87 2620.5 1870.72 2596.65 1900.15 2596.65L2377.71 2596.65C2407.15 2596.65 2431 2620.5 2431 2649.94L2431 3554.23C2431 3583.65 2407.15 3607.52 2377.71 3607.52Z" />
		<path id="Path 11" class="shp10" d="M2362.33 3568.02L1915.54 3568.02C1886.46 3568.02 1862.9 3544.44 1862.9 3515.37L1862.9 2665.58C1862.9 2636.5 1886.46 2612.94 1915.54 2612.94L2362.33 2612.94C2391.4 2612.94 2414.98 2636.5 2414.98 2665.58L2414.98 3515.37C2414.98 3544.44 2391.4 3568.02 2362.33 3568.02Z" />
		<path id="Path 12" class="shp8" d="M2225.96 2628.29L2051.9 2628.29L2051.9 2588.98L2225.96 2588.98L2225.96 2628.29Z" />
		<path id="Path 13" fill-rule="evenodd" class="shp11" d="M2031.61 1205.67L1990.31 1263.71L1949.01 1321.75L1889.18 1295.04C1865.02 1315.37 1838.41 1331.87 1810.27 1344.42L1808.19 1409.95L1737.95 1421.79L1667.71 1433.62L1644.27 1372.38C1613.57 1369.75 1583.02 1362.88 1553.54 1351.59L1505.76 1396.43L1447.73 1355.12L1389.69 1313.82L1416.4 1254C1396.07 1229.84 1379.57 1203.22 1367.02 1175.09L1301.48 1173.01L1289.65 1102.76L1277.82 1032.52L1339.06 1009.09C1341.69 978.39 1348.56 947.84 1359.85 918.35L1315.02 870.58L1356.32 812.54L1397.62 754.5L1457.44 781.21C1481.6 760.88 1508.22 744.39 1536.35 731.84L1538.43 666.3L1608.68 654.46L1678.92 642.63L1702.35 703.87C1733.05 706.51 1763.6 713.37 1793.09 724.66L1840.86 679.83L1898.9 721.13L1956.94 762.43L1930.22 822.26C1950.56 846.42 1967.05 873.03 1979.6 901.17L2045.14 903.25L2056.98 973.49L2068.81 1043.73L2007.57 1067.17C2004.93 1097.86 1998.06 1128.41 1986.77 1157.9L2031.61 1205.67ZM1815.61 1139.39C1871.54 1060.8 1853.17 951.75 1774.58 895.82C1695.99 839.9 1586.94 858.27 1531.01 936.86C1475.08 1015.45 1493.46 1124.5 1572.05 1180.43C1650.64 1236.36 1759.69 1217.98 1815.61 1139.39Z" />
		<path id="Path 14" fill-rule="evenodd" class="shp12" d="M2130.96 3059.31L2119.42 3029.1C2107.65 3027.73 2096.08 3025.06 2084.92 3021.21L2061.35 3043.31L1995.99 2996.81L2009.16 2967.29C2001.86 2958.02 1995.57 2947.96 1990.39 2937.29L1958.07 2936.27L1944.74 2857.15L1974.94 2845.6C1976.34 2833.83 1978.99 2822.27 1982.85 2811.1L1960.73 2787.54L2007.25 2722.17L2036.76 2735.35C2046.03 2728.04 2056.09 2721.75 2066.76 2716.58L2067.78 2684.25L2146.9 2670.94L2158.46 2701.13C2170.23 2702.52 2181.79 2705.17 2192.94 2709.04L2216.5 2686.92L2281.88 2733.44L2268.71 2762.96C2276 2772.23 2282.29 2782.27 2287.48 2792.94L2319.79 2793.98L2333.13 2873.08L2302.92 2884.65C2301.52 2896.42 2298.87 2907.98 2295.02 2919.13L2317.12 2942.71L2270.63 3008.06L2241.1 2994.9C2231.83 3002.19 2221.77 3008.48 2211.1 3013.67L2210.08 3045.98L2130.96 3059.31ZM2081.06 3001.98L2085.94 3003.83C2098.79 3008.75 2112.29 3011.85 2126.08 3013.04L2131.27 3013.48L2141.67 3040.6L2193.85 3031.81L2194.77 3002.79L2199.54 3000.67C2212.19 2995.02 2223.94 2987.67 2234.46 2978.81L2238.46 2975.46L2264.96 2987.29L2295.65 2944.15L2275.79 2923L2277.65 2918.13C2282.56 2905.27 2285.67 2891.77 2286.85 2877.98L2287.29 2872.77L2314.42 2862.4L2305.62 2810.19L2276.6 2809.27L2274.48 2804.5C2268.83 2791.87 2261.48 2780.13 2252.63 2769.6L2249.27 2765.6L2261.1 2739.1L2217.96 2708.42L2196.81 2728.27L2191.94 2726.4C2179.08 2721.48 2165.58 2718.4 2151.79 2717.21L2146.58 2716.75L2136.21 2689.62L2084 2698.44L2083.09 2727.46L2078.32 2729.58C2065.68 2735.23 2053.93 2742.56 2043.41 2751.42L2039.41 2754.79L2012.92 2742.96L1982.23 2786.08L2002.08 2807.25L2000.21 2812.13C1995.3 2824.98 1992.2 2838.48 1991.02 2852.27L1990.57 2857.46L1963.44 2867.85L1972.24 2920.04L2001.27 2920.96L2003.4 2925.73C2009.03 2938.38 2016.38 2950.13 2025.24 2960.65L2028.6 2964.65L2016.77 2991.15L2059.9 3021.83L2081.06 3001.98ZM2181.33 2805.33C2168.88 2796.5 2154.23 2791.81 2139 2791.81C2128.5 2791.81 2117.92 2794.13 2108.38 2798.48L2101.46 2783.33C2113.15 2777.98 2126.12 2775.15 2139 2775.15C2157.71 2775.15 2175.69 2780.9 2190.98 2791.75L2181.33 2805.33ZM2087.04 2938.6L2086.67 2938.35C2063.1 2921.56 2048.96 2894.15 2048.96 2865.04C2048.96 2862.25 2049.1 2859.44 2049.36 2856.65L2065.95 2858.21C2065.74 2860.48 2065.63 2862.77 2065.63 2865.04C2065.63 2888.77 2077.15 2911.1 2096.44 2924.83L2087.04 2938.6ZM2176.54 2946.85L2169.58 2931.71C2181.17 2926.4 2191.21 2918.06 2198.65 2907.63C2206.15 2897.08 2210.75 2884.73 2211.92 2871.94L2228.52 2873.46C2227.06 2889.19 2221.44 2904.35 2212.23 2917.29C2203.1 2930.1 2190.75 2940.33 2176.54 2946.85Z" />
		<path id="Path 15" fill-rule="evenodd" class="shp12" d="M2254.48 3241.23L2248.12 3224.56C2243.29 3223.88 2238.54 3222.77 2233.9 3221.31L2220.92 3233.52L2181.35 3205.38L2188.63 3189.1C2185.73 3185.21 2183.15 3181.06 2180.9 3176.73L2163.06 3176.17L2155.02 3128.31L2171.67 3121.94C2172.35 3117.1 2173.46 3112.35 2174.92 3107.73L2162.73 3094.73L2190.85 3055.19L2207.15 3062.46C2211.04 3059.54 2215.17 3056.96 2219.5 3054.73L2220.06 3036.9L2267.92 3028.83L2274.29 3045.5C2279.12 3046.19 2283.88 3047.27 2288.5 3048.75L2301.5 3036.56L2341.04 3064.69L2333.77 3080.96C2336.69 3084.85 2339.27 3089 2341.52 3093.33L2359.33 3093.9L2367.4 3141.75L2350.75 3148.12C2350.04 3152.96 2348.96 3157.71 2347.48 3162.33L2359.69 3175.33L2331.54 3214.87L2315.27 3207.6C2311.37 3210.52 2307.23 3213.1 2302.92 3215.33L2302.35 3233.17L2254.48 3241.23ZM2229.98 3202.12L2234.85 3204C2241.25 3206.46 2247.96 3207.98 2254.81 3208.58L2260 3209.02L2265.17 3222.52L2286.12 3219L2286.58 3204.54L2291.35 3202.42C2297.62 3199.63 2303.46 3195.96 2308.69 3191.56L2312.69 3188.21L2325.88 3194.08L2338.19 3176.79L2328.31 3166.25L2330.17 3161.38C2332.63 3155 2334.17 3148.29 2334.75 3141.42L2335.19 3136.23L2348.69 3131.06L2345.17 3110.12L2330.73 3109.67L2328.58 3104.9C2325.79 3098.6 2322.15 3092.77 2317.73 3087.54L2314.38 3083.54L2320.27 3070.35L2302.96 3058.04L2292.44 3067.92L2287.54 3066.06C2281.17 3063.6 2274.46 3062.08 2267.6 3061.48L2262.4 3061.04L2257.23 3047.54L2236.29 3051.06L2235.83 3065.52L2231.06 3067.65C2224.79 3070.44 2218.94 3074.1 2213.71 3078.5L2209.71 3081.85L2196.52 3075.98L2184.21 3093.27L2194.1 3103.81L2192.23 3108.69C2189.79 3115.06 2188.25 3121.77 2187.67 3128.62L2187.21 3133.83L2173.71 3139L2177.25 3159.94L2191.69 3160.4L2193.81 3165.17C2196.63 3171.46 2200.27 3177.29 2204.67 3182.52L2208.04 3186.52L2202.15 3199.71L2219.46 3212.02L2229.98 3202.12ZM2261.1 3186.15C2250.56 3186.15 2240.33 3182.9 2231.58 3176.67C2208.63 3160.33 2203.23 3128.35 2219.56 3105.4C2235.9 3082.44 2267.87 3077.06 2290.83 3093.4C2313.79 3109.73 2319.17 3141.71 2302.83 3164.67C2294.92 3175.77 2283.15 3183.15 2269.69 3185.42C2266.81 3185.9 2263.94 3186.15 2261.1 3186.15ZM2261.25 3100.6C2250.48 3100.6 2239.85 3105.65 2233.15 3115.06C2222.15 3130.54 2225.77 3152.08 2241.25 3163.08C2248.73 3168.42 2257.85 3170.52 2266.92 3168.98C2276 3167.46 2283.92 3162.48 2289.25 3155C2300.27 3139.52 2296.65 3117.98 2281.17 3106.98C2275.13 3102.67 2268.15 3100.6 2261.25 3100.6Z" />
		<path id="Path 16" class="shp13" d="M1828.21 3293.52C1828.21 3293.52 1832.21 3300.08 1832.72 3305.44C1833.11 3309.67 1836.68 3316 1838.22 3319.5C1839.76 3323 1844.73 3338.85 1844.91 3342.96C1844.98 3344.65 1841.22 3355.27 1841.75 3358.67C1842.29 3362.06 1844.23 3368.79 1841.18 3369.25C1838.13 3369.69 1834.67 3364.17 1834.67 3364.17C1834.67 3364.17 1834.96 3367.29 1832.38 3368.5C1827.36 3370.81 1824.7 3368.77 1824.7 3368.77C1824.7 3368.77 1822.85 3372.21 1820.53 3372.67C1815.4 3373.69 1812.89 3371.65 1812.89 3371.65C1812.89 3371.65 1810.64 3373.56 1807.09 3373.5C1802.56 3373.42 1800.66 3369.5 1800.66 3369.5C1800.66 3369.5 1794.93 3370.67 1793.26 3367.98C1791.6 3365.31 1791.89 3362.46 1791.2 3360.04C1790.51 3357.6 1791.03 3335.71 1798.47 3319.94C1805.91 3304.17 1796.58 3288.79 1796.58 3288.79L1828.21 3293.52Z" />
		<path id="Path 17" class="shp14" d="M1835.48 3362.13C1835.48 3362.13 1835.99 3342.48 1830.82 3338.29C1825.65 3334.1 1825.06 3341.19 1825.06 3341.19C1825.06 3341.19 1825.76 3334.19 1820.11 3333.25C1814.46 3332.29 1814.22 3340.62 1814.22 3340.62C1814.22 3340.62 1813.29 3335.21 1807.36 3336.33C1801.42 3337.44 1802.84 3344.33 1802.84 3344.33C1802.84 3344.33 1797.16 3337.56 1793.49 3344.06C1787.28 3355.04 1793.26 3367.98 1793.26 3367.98C1793.26 3367.98 1795.01 3370.96 1800.66 3369.5C1800.66 3369.5 1804.44 3377.12 1812.89 3371.65C1812.89 3371.65 1821.55 3376.42 1824.7 3368.77C1824.7 3368.77 1834.24 3373.31 1835.48 3362.13Z" />
		<path id="Path 18" class="shp15" d="M1894.87 3010.46C1894.87 3010.46 1861.23 3122.58 1849.86 3163.92C1846.3 3176.9 1837.67 3300.75 1836.15 3305.75C1834.63 3310.73 1791.96 3317.56 1791.96 3317.56C1791.96 3317.56 1797.13 3162.63 1797.61 3154.17C1798.1 3145.71 1844.69 2972.69 1858.24 2966.52C1868.39 2961.9 1873.75 2965.71 1886.55 2975.21C1904.5 2988.54 1894.87 3010.46 1894.87 3010.46Z" />
		<path id="Path 19" class="shp16" d="M2226.65 2859.15L2222.9 2853.42L2299.9 2803.02L2303.65 2808.75L2226.65 2859.15Z" />
		<path id="Path 20" class="shp17" d="M2311.85 2832C2311.85 2832 2311.12 2836.35 2309.87 2838.1C2309.87 2838.1 2307.35 2841.1 2305.69 2843.35C2305.17 2844.06 2304.73 2844.71 2304.48 2845.15C2303.46 2846.98 2301.79 2851.29 2298.12 2855.02C2294.46 2858.75 2280.17 2870.56 2280.17 2870.56L2267.94 2860.19L2255.23 2854.48C2255.23 2854.48 2262.33 2823.56 2265.35 2819.71C2265.65 2819.33 2265.96 2818.98 2266.27 2818.65C2269.15 2815.62 2272.54 2814.58 2274.23 2813.17C2274.85 2812.67 2281.4 2807.96 2283.73 2808.56C2286.96 2809.4 2288.85 2811.29 2289.6 2813.46C2289.6 2813.46 2295.85 2815.37 2298.29 2819.06C2298.29 2819.06 2304.12 2820.65 2305.85 2826.08C2305.85 2826.08 2311.6 2828.35 2311.85 2832Z" />
		<path id="Path 21" class="shp18" d="M1867.57 3775.94C1867.57 3775.94 1864.51 3797.21 1864.13 3800.42C1863.74 3803.6 1830.01 3798.52 1830.01 3798.52L1827.28 3773.19C1827.28 3773.19 1863.36 3772.94 1867.57 3775.94Z" />
		<path id="Path 22" class="shp19" d="M1864.48 3797.71C1864.48 3797.71 1875.17 3810.52 1885.5 3816.12C1895.84 3821.71 1912.08 3823.92 1918.19 3829.71C1922.6 3833.87 1934.26 3851.87 1891.33 3851.5C1848.41 3851.15 1827.71 3854.04 1823.11 3847.15C1818.52 3840.25 1829.77 3796.27 1829.77 3796.27C1829.77 3796.27 1839.94 3799.92 1864.48 3797.71Z" />
		<path id="Path 23" class="shp18" d="M2109.23 3775.94C2109.23 3775.94 2106.17 3797.21 2105.77 3800.42C2105.4 3803.6 2071.67 3798.52 2071.67 3798.52L2068.94 3773.19C2068.94 3773.19 2105 3772.94 2109.23 3775.94Z" />
		<path id="Path 24" class="shp19" d="M2106.13 3797.71C2106.13 3797.71 2116.81 3810.52 2127.15 3816.12C2137.5 3821.71 2175.52 3826.29 2181.63 3832.08C2186.04 3836.27 2193.37 3853.08 2132.98 3851.5C2090.08 3850.38 2069.37 3854.04 2064.77 3847.15C2060.17 3840.25 2071.42 3796.27 2071.42 3796.27C2071.42 3796.27 2081 3800.17 2106.13 3797.71ZM1895.5 3229.06C1895.5 3229.06 1863.81 3279.4 1866.17 3324.92C1868.54 3370.44 1854.69 3420.13 1849.92 3467.67C1844.62 3520.67 1822.9 3646.15 1822.11 3674.5C1821.32 3702.83 1825.48 3793.38 1825.48 3793.38L1868.96 3794.38C1868.96 3794.38 1905.47 3575 1914.93 3552.62C1924.39 3530.23 1971.28 3370.67 1972.86 3352.77C1974.43 3334.85 1895.5 3229.06 1895.5 3229.06ZM2062.32 3235.88C2062.32 3235.88 2086.21 3360.62 2089.35 3388.48C2092.5 3416.33 2094.6 3523.27 2096.19 3540.69C2097.77 3558.1 2110.92 3767.98 2115.1 3794.38L2059.52 3794.38C2059.52 3794.38 2016.85 3641.42 2016.85 3569.04C2016.85 3496.67 1983.89 3411.71 1962.61 3363.96C1941.34 3316.21 1892.63 3315.06 1879.55 3226.48C1879.55 3226.48 2044.61 3207.77 2062.32 3235.88Z" />
		<path id="Path 25" class="shp13" d="M1948.38 2805.75C1948.38 2805.75 1990.92 2789.87 2010.53 2822.25C2030.14 2854.63 2028.25 2919.44 2006.81 2927.42C1985.37 2935.4 1953.16 2931.21 1942.19 2910.96C1931.21 2890.69 1921.3 2861.42 1921.78 2841.83C1922.25 2822.25 1937.21 2811.4 1948.38 2805.75ZM2002.19 2928.9C2002.19 2928.9 2000.42 2940.37 2003.35 2946.04C2006.28 2951.69 1948.24 2951.85 1948.24 2951.85C1948.24 2951.85 1943.53 2921.06 1934.6 2895.08C1925.67 2869.08 2002.19 2928.9 2002.19 2928.9Z" />
		<path id="Path 26" class="shp20" d="M1934.6 2895.08C1934.6 2895.08 1938.61 2901.69 1954.95 2899.13C1971.31 2896.56 1991.25 2874.79 1998.08 2872.42C2004.9 2870.02 2004.97 2866.02 2004.97 2866.02L2009.24 2872.25L2016.49 2872.71C2016.49 2872.71 2009.88 2853.25 2019.86 2845.33C2029.83 2837.4 2009.5 2782.33 1957.07 2800.67C1957.07 2800.67 1916.8 2811.77 1918.26 2834.67C1919.73 2857.58 1925.59 2883.67 1934.6 2895.08Z" />
		<path id="Path 27" class="shp21" d="M2006.79 2945.35C2006.79 2945.35 2006.61 2934.54 2001.71 2933.52C1996.81 2932.48 1947.63 2927.75 1941.62 2930.1L1941.62 2942.71C1941.62 2942.71 1953.21 2949.83 2006.79 2945.35Z" />
		<path id="Path 28" class="shp13" d="M2003.89 2857.69C2002.97 2853.85 1993.2 2842.88 1989.46 2854.63C1985.72 2866.37 1995.11 2882.19 2000.35 2880.83C2005.59 2879.48 2006.21 2867.42 2003.89 2857.69Z" />
		<path id="Path 29" class="shp15" d="M2088.15 2961.73C2054.42 2957.27 2006.79 2945.35 2006.79 2945.35L1941.62 2942.71C1941.62 2942.71 1881.8 2955.88 1858.24 2966.52C1856.01 2967.52 1856 3019.88 1849.86 3033.6L1869.4 3074.81C1869.4 3074.81 1880.68 3156.44 1883.02 3192.73C1884.1 3209.4 1859.75 3349 1859.75 3349C1859.75 3349 1885.84 3356.69 1930.32 3361.58C1974.8 3366.48 2085.94 3359.81 2086.65 3354.56C2087.35 3349.31 2065.12 3158.92 2064.14 3149.06C2062.63 3133.94 2069.35 3053.52 2069.35 3053.52C2079.62 3045.56 2169.79 3003.69 2194.4 2981.88C2200.98 2976.04 2228.77 2948.98 2236.67 2939.65C2264.65 2906.56 2287.58 2878.19 2290.38 2872.08C2293.54 2868.6 2259.02 2850.04 2255.98 2849.04C2253.31 2848.15 2216.46 2897.44 2201.9 2913.21C2195.42 2920.23 2168.44 2939.85 2168.44 2939.85C2168.44 2939.85 2109.23 2962.94 2088.15 2961.73Z" />
		<path id="Path 30" class="shp20" d="M1936.27 2809.58C1936.27 2809.58 1882.03 2813.81 1934.6 2895.08L1936.27 2809.58Z" />
		<path id="Path 31" class="shp22" d="M2303.65 2808.75L2308.08 2801.96L2299.9 2803.02L2303.65 2808.75Z" />
		<path id="Path 32" class="shp23" d="M3828.85 908.26C3852.42 908.26 3871.58 889.09 3871.58 865.52L3861.52 865.52C3861.52 883.53 3846.88 898.19 3828.85 898.19C3810.83 898.19 3796.19 883.53 3796.19 865.52C3796.19 847.51 3810.83 832.85 3828.85 832.85L3833.9 832.85L3833.9 315.53L3823.83 315.53L3823.83 823.08C3802.63 825.58 3786.12 843.66 3786.12 865.52C3786.12 889.09 3805.29 908.26 3828.85 908.26Z" />
		<path id="Path 33" class="shp5" d="M3817.27 820.89L3841.33 820.89L3841.33 576.6L3817.27 576.6L3817.27 820.89ZM3542.44 1226.71L3530.1 1215.51L3829.54 885.87L3840.5 898.61L3542.44 1226.71Z" />
		<path id="Path 34" class="shp24" d="M4322.98 1543.55C4357.17 1517.88 4389.02 1489.78 4418.38 1459.6L4143.79 1175.02C4102.65 1219.76 4051.27 1256.46 3991.35 1281.13C3818.85 1352.13 3626.81 1302.53 3508.83 1171.32L3239.33 1461.32C3267.77 1490.37 3298.19 1517.09 3330.29 1541.32L3298.94 1699.32L3460.42 1766.63L3621.94 1833.9L3712 1700.38C3786.92 1711.1 3863.83 1711.59 3940.67 1700.98L4030.1 1834.78L4191.9 1768.14L4353.69 1701.5L4322.98 1543.55Z" />
		<path id="Path 35" class="shp25" d="M3522.54 2579.6L3253.21 2579.6L3253.21 2774.81L3253.21 2815.94L3294.33 2774.81L3522.54 2774.81L3522.54 2579.6Z" />
		<path id="Path 36" class="shp13" d="M3256.06 3022.48C3256.06 3022.48 3261.87 3008.06 3262.83 3005.9C3263.79 3003.73 3269.4 3000.17 3276.19 2996.67C3282.96 2993.15 3293.71 2991.46 3294.85 2992.08C3296.02 2992.73 3297.48 2992.83 3298.96 2995.87C3300.44 2998.92 3300.02 3002.31 3300.02 3002.31C3300.02 3002.31 3303.62 3005.19 3302.79 3009.33C3302.79 3009.33 3306.04 3012.19 3304.33 3016.73C3304.33 3016.73 3307.44 3019.63 3305.92 3022.81C3305.92 3022.81 3300.31 3026.38 3298.6 3028.29C3296.92 3030.21 3284.73 3036.83 3272.08 3041.37C3272.08 3041.37 3258.69 3041.62 3256.06 3022.48Z" />
		<path id="Path 37" class="shp26" d="M3276.69 3014.62C3276.69 3014.62 3276.83 3022.42 3275.77 3024.65C3274.69 3026.85 3291.6 3031.77 3291.6 3031.77C3291.6 3031.77 3286.19 3014.69 3276.69 3014.62Z" />
		<path id="Path 38" class="shp27" d="M2961.31 3777.9L2968.69 3754.9L2999.92 3759.96L2995.25 3780.69L2961.31 3777.9ZM3217.27 3775.17L3219.02 3787.81L3253.21 3782.1L3251.4 3763.23L3217.27 3775.17Z" />
		<path id="Path 39" class="shp28" d="M3143.23 3421.1C3143.23 3421.1 3138.21 3448.54 3132.35 3478.98C3131.35 3484.29 3130.31 3489.69 3129.25 3495.04C3123.54 3524.4 3117.77 3552.62 3115.65 3558.46C3110.79 3571.73 3006.12 3763.54 3006.12 3763.54C3006.12 3763.54 2963.31 3760.27 2961.71 3754.77C2961.71 3754.77 3049.46 3546.52 3048.96 3538.92C3048.48 3531.33 3059.69 3317.83 3059.69 3317.83C3059.69 3317.83 3140.92 3408.77 3143.23 3421.1ZM3191.06 3305.63C3191.06 3305.63 3232.02 3515.35 3235.52 3531.42C3239.02 3547.48 3254.54 3762.31 3254.54 3762.31C3254.54 3762.31 3245.33 3781.29 3211.33 3774.15C3211.33 3774.15 3164.98 3543.31 3161.08 3535.58C3145.92 3505.56 3071.5 3360.12 3064.27 3339.37C3057.06 3318.63 3059.19 3294.4 3059.19 3294.4C3059.19 3294.4 3114.48 3263.33 3191.06 3305.63Z" />
		<path id="Path 40" class="shp29" d="M3173.85 3033.98C3173.85 3033.98 3191.81 3078.75 3196.33 3077.44C3200.83 3076.1 3252.48 3015.48 3252.48 3015.48C3252.48 3015.48 3276.08 3044.96 3272.94 3048.35C3268.52 3053.06 3207.54 3154.44 3199.17 3152.6C3190.77 3150.77 3153.27 3088.81 3153.27 3088.81C3153.27 3088.81 3151.17 3042.06 3173.85 3033.98Z" />
		<path id="Path 41" class="shp30" d="M3097.02 2948.46C3097.02 2948.46 3143.6 2984.06 3156.46 2998.19C3169.31 3012.31 3204.81 3070.87 3202.25 3088.5C3192.44 3156.04 3187.77 3213.6 3187.48 3259.69C3187.23 3299.83 3200.02 3310.08 3192.04 3310.67C3182.9 3311.35 3065.67 3353.83 3048.33 3359C3048.33 3359 3059.69 3217.65 3065.46 3201.33C3071.21 3185.02 3047.02 3014.08 3097.02 2948.46Z" />
		<path id="Path 42" class="shp31" d="M3397.04 2880.92L3407.5 2933.58L3417.96 2986.25C3417.96 2986.25 3358.15 2967.52 3290.27 2981L3285.67 2957.77L3281.02 2934.42C3348.9 2920.94 3397.04 2880.92 3397.04 2880.92Z" />
		<path id="Path 43" class="shp32" d="M3219.02 3787.81C3219.02 3787.81 3244.83 3782.81 3245.73 3782.02C3246.63 3781.25 3252.17 3771.06 3256.17 3772.83C3260.15 3774.6 3260.21 3787.02 3264.1 3789.12C3268 3791.21 3298.79 3812.02 3302.58 3815.81C3306.38 3819.6 3329.69 3817.38 3332.38 3823.96C3335.04 3830.54 3335.27 3846.08 3300.48 3842.42C3265.67 3838.77 3225.94 3844.44 3218.46 3840.31C3210.96 3836.21 3216.62 3797.83 3219.02 3787.81ZM2960.9 3777.33C2960.9 3777.33 2987.17 3776.52 2988.19 3775.9C2989.21 3775.27 2996.29 3766.08 2999.96 3768.48C3003.6 3770.87 3001.67 3783.15 3005.19 3785.83C3008.71 3788.52 3035.77 3814 3038.9 3818.33C3042.02 3822.69 3065.42 3824.23 3067 3831.15C3068.58 3838.06 3066.31 3853.46 3032.56 3844.27C2998.79 3835.1 2958.67 3834.33 2951.94 3829.06C2945.19 3823.81 2956.94 3786.83 2960.9 3777.33Z" />
		<path id="Path 44" class="shp33" d="M3164.92 3315.35C3164.92 3315.35 3168.06 3328.12 3173.1 3330.9C3178.15 3333.65 3149.6 3360.96 3149.6 3360.96C3149.6 3360.96 3138.02 3335.65 3138.33 3333.1C3138.65 3330.54 3164.92 3315.35 3164.92 3315.35Z" />
		<path id="Path 45" class="shp34" d="M3076.33 3003.69C3076.33 3003.69 3042.9 3162.71 3040.15 3179C3037.56 3194.42 3138.17 3341.54 3138.17 3341.54L3171.63 3321.71C3171.63 3321.71 3090.44 3174.08 3090.56 3167.33C3090.69 3160.6 3129.54 3032.4 3129.54 3032.4C3129.54 3032.4 3145.77 3004.48 3116.96 2990.92C3088.15 2977.37 3076.33 3003.69 3076.33 3003.69Z" />
		<path id="Path 46" class="shp35" d="M3184.54 3326.31C3184.54 3326.31 3195.42 3380.4 3194.75 3396.96C3194.06 3413.52 3132.33 3370.9 3135.46 3354.42L3184.54 3326.31Z" />
		<path id="Path 47" class="shp13" d="M3097.02 2948.46C3097.02 2948.46 3181.88 3041.15 3176.65 3030.88C3158.02 2994.23 3145 2988.04 3145.27 2981.21C3145.48 2975.98 3147.19 2960.88 3147.52 2955.77C3148.19 2946.06 3149.25 2938.04 3149.25 2938.04C3149.25 2938.04 3107.13 2878.87 3108.98 2899.02C3110.83 2919.19 3097.02 2948.46 3097.02 2948.46ZM3177.83 2839.35C3177.83 2839.35 3189.5 2866.75 3189.67 2873.15C3189.83 2879.56 3188.21 2884.48 3189.19 2891.85C3190.23 2899.5 3196.63 2915.56 3195.85 2920C3194.9 2925.35 3183.6 2922.56 3182.04 2931.4C3180.48 2940.23 3172.27 2956.83 3168.19 2957.17C3157.69 2958.04 3117.46 2941.62 3114.9 2933.21C3112.33 2924.79 3097.77 2877.87 3093.23 2868.96C3088.69 2860.02 3164.1 2811.13 3170.96 2825.23C3177.83 2839.35 3177.83 2839.35 3177.83 2839.35Z" />
		<path id="Path 48" class="shp36" d="M3075.29 2859.67C3069.96 2836.44 3096.69 2833.58 3096.69 2833.58C3096.69 2833.58 3114.06 2813.33 3155.69 2815.73C3197.31 2818.15 3190.96 2872.46 3190.96 2872.46C3190.96 2872.46 3162.17 2868.15 3149.65 2871.31C3149.65 2871.31 3148.1 2894.5 3149.46 2900.25L3133.77 2898.85C3133.77 2898.85 3135.52 2878.27 3128 2877.29C3120.46 2876.33 3117.92 2920.87 3103.9 2930.69C3103.9 2930.69 3103.75 2927.54 3102 2924.46C3099.19 2919.56 3094.83 2911.33 3091.08 2901.73C3084.96 2888.27 3078.02 2871.58 3075.29 2859.67Z" />
		<path id="Path 49" class="shp13" d="M3138.44 2882.27C3138.44 2882.27 3132.6 2866.56 3118.81 2876.75C3108.77 2884.17 3119.08 2910.69 3128.85 2910.56C3138.63 2910.44 3142.6 2896 3138.44 2882.27Z" />
		<path id="Path 50" class="shp37" d="M3112.63 2925.88C3112.63 2925.88 3114.69 2934.21 3116.94 2936.17C3119.19 2938.1 3129.75 2946.69 3148.08 2952.44L3146.29 2969.08C3146.29 2969.08 3110.79 2955.15 3112.63 2925.88Z" />
		<path id="Path 51" class="shp38" d="M3299.73 3038.6L3305.73 3035.75L3278.58 2978.17L3263.38 2985.33L3286.37 3034.15C3288.94 3039.58 3294.31 3041.17 3299.73 3038.6Z" />
		<path id="Path 52" class="shp14" d="M3293.04 2992.94C3293.04 2992.94 3276.06 3002.27 3277.23 3005.19C3278.37 3008.1 3280.58 3008.48 3280.58 3008.48L3275.33 3015.48C3275.33 3015.48 3274.48 3022.08 3281.92 3021.08C3281.92 3021.08 3280.48 3027.17 3287.54 3025.35C3287.54 3025.35 3288.4 3029.79 3291.81 3029.52C3295.23 3029.27 3305.92 3022.81 3305.92 3022.81C3305.92 3022.81 3307.56 3020.44 3304.33 3016.73C3304.33 3016.73 3306.23 3012.48 3302.79 3009.33C3302.79 3009.33 3303.77 3005.69 3300.02 3002.31C3300.02 3002.31 3301.58 2994.02 3294.85 2992.08C3294.85 2992.08 3293.75 2992.54 3293.04 2992.94Z" />
		<path id="Path 53" class="shp38" d="M3243.33 2990.71L3303.21 2979.54L3293.46 2930.44L3234.06 2943.98L3243.33 2990.71Z" />
		<path id="Path 54" class="shp13" d="M3263.33 3005.54C3263.33 3005.54 3276.63 3005.17 3283.98 3008.15C3285.62 3008.83 3287.12 3009.79 3287.12 3011.58C3287.12 3013.38 3284.52 3015.67 3278.77 3016.12C3273.02 3016.56 3265.79 3019.79 3265.79 3019.79C3265.79 3019.79 3259.75 3018.52 3263.33 3005.54Z" />
		<path id="Path 55" class="shp39" d="M3132.35 3478.98C3131.35 3484.29 3130.31 3489.69 3129.25 3495.04L3095.25 3405.06C3099.75 3414.15 3132.35 3478.98 3132.35 3478.98Z" />
		<path id="Path 56" class="shp40" d="M3744.71 3308.23L4293.65 3308.23L4120.65 3839.54L4136.81 3844.81L4317.08 3291.21L3732.35 3291.21L3553.81 3839.54L3569.98 3844.81L3744.71 3308.23ZM3931.54 3839.54L3758.52 3308.23L4307.46 3308.23L4482.19 3844.81L4498.37 3839.54L4319.81 3291.21L3735.08 3291.21L3915.35 3844.81L3931.54 3839.54ZM3693.65 3475.54L4365.52 3475.54L4365.52 3458.52L3693.65 3458.52L3693.65 3475.54ZM3624.42 3660.27L4428.27 3660.27L4428.27 3643.25L3624.42 3643.25L3624.42 3660.27Z" />
		<path id="Path 57" class="shp41" d="M4317.44 2253.75C4317.44 2253.75 4321.31 2240.44 4315.37 2235.21C4310.33 2230.75 4307.04 2221.35 4306.02 2218.46C4304.65 2214.6 4296.02 2204.29 4300.87 2202.52C4305.73 2200.75 4315.92 2218.81 4318.79 2222.19C4321.69 2225.54 4324.96 2205.98 4328.38 2202.87C4331.79 2199.77 4363.87 2207.02 4360.08 2220.19C4356.29 2233.35 4343.54 2244.92 4343.33 2247.37C4343.12 2249.81 4340.94 2257.06 4340.94 2257.06L4317.44 2253.75ZM4326.77 2205.75C4326.77 2205.75 4341.06 2166.21 4344.23 2164.37C4347.37 2162.54 4349.48 2163.44 4348.29 2167.19C4347.1 2170.94 4335.58 2205.79 4335.58 2205.79C4335.58 2205.79 4360.37 2161.83 4362.63 2159.77C4363.96 2158.56 4368.1 2160.06 4367.67 2162.13C4367.23 2164.21 4345.15 2209.17 4345.15 2209.17C4345.15 2209.17 4368.35 2168.17 4370.77 2167C4372.87 2165.98 4376.35 2168.31 4374.83 2171.48C4373.31 2174.65 4353.92 2213.9 4353.92 2213.9C4353.92 2213.9 4372.69 2185.12 4375.31 2185.33C4376.92 2185.46 4380.56 2186.6 4375.5 2193.88C4370.42 2201.15 4360.23 2219.56 4360.23 2219.56L4326.77 2205.75ZM3765.77 2612.83C3765.77 2612.83 3753.08 2618.42 3747.12 2613.23C3742.04 2608.81 3732.31 2606.75 3729.29 2606.13C3725.29 2605.27 3713.94 2598.08 3712.83 2603.12C3711.71 2608.17 3730.96 2615.9 3734.67 2618.31C3738.38 2620.73 3719.42 2626.54 3716.79 2630.33C3714.15 2634.12 3725.54 2664.98 3738.1 2659.5C3750.65 2654.02 3760.44 2639.85 3762.83 2639.33C3765.25 2638.81 3772.15 2635.71 3772.15 2635.71L3765.77 2612.83ZM3719.42 2628.35C3719.42 2628.35 3682.08 2647.71 3680.69 2651.08C3679.27 2654.46 3680.44 2656.42 3684 2654.75C3687.56 2653.08 3720.6 2637.1 3720.6 2637.1C3720.6 2637.1 3680.29 2667.42 3678.52 2669.94C3677.5 2671.42 3679.54 2675.33 3681.52 2674.63C3683.52 2673.92 3725.21 2646.12 3725.21 2646.12C3725.21 2646.12 3687.6 2674.52 3686.77 2677.06C3686.02 2679.27 3688.79 2682.42 3691.73 2680.5C3694.67 2678.58 3731.04 2654.21 3731.04 2654.21C3731.04 2654.21 3704.98 2676.58 3705.54 2679.17C3705.87 2680.73 3707.48 2684.21 3714.02 2678.23C3720.56 2672.23 3737.5 2659.73 3737.5 2659.73L3719.42 2628.35Z" />
		<path id="Path 58" class="shp15" d="M3752.4 2613.48L3772.37 2638.13C3772.37 2638.13 3900.98 2584.98 3920.65 2566.54C3920.65 2566.54 3925.85 2564.54 3952.46 2543.44C3958.15 2538.92 3963.71 2534.65 3968.81 2530.92C3968.81 2530.92 3970.13 2529.73 3972.27 2527.81C3972.29 2527.81 3972.29 2527.79 3972.29 2527.79C3981.85 2519.25 4007.79 2496.1 4007.79 2496.1C4007.79 2496.1 4072.29 2461.85 4046 2424.85C4046 2424.85 4035.06 2414.98 4018.29 2422.96C4001.5 2430.92 3977.23 2451.9 3971.48 2457.42C3965.73 2462.92 3928.46 2494.71 3926.46 2496.73C3919.02 2504.27 3893.69 2526.83 3880.62 2536.69C3857.56 2554.06 3752.4 2613.48 3752.4 2613.48Z" />
		<path id="Path 59" class="shp33" d="M4120.15 2352C4120.13 2352.04 4120.13 2352.04 4120.13 2352.04C4115.21 2362.52 4109.23 2372.46 4102.65 2380.9C4079.9 2410.08 4026.88 2410.81 4026.1 2330.71C4025.96 2315.52 4027.83 2303.23 4030.9 2293.25C4041.75 2257.69 4067.25 2251.77 4067.25 2251.77C4086.1 2250.73 4119.08 2255.4 4130.06 2279.94C4137.88 2297.37 4132.23 2326.27 4120.15 2352Z" />
		<path id="Path 60" class="shp42" d="M4120.15 2352C4120.13 2352.04 4120.13 2352.04 4120.13 2352.04C4120.13 2352.04 4117.42 2352.77 4107.63 2333C4105.65 2329.02 4104.15 2331.88 4103.29 2330.1L4087.69 2324.02C4087.69 2324.02 4103.13 2298.23 4082.94 2291.06C4062.35 2283.77 4030.9 2293.25 4030.9 2293.25C4037.63 2229.6 4067.25 2251.77 4067.25 2251.77C4086.1 2250.73 4126.4 2251.87 4137.37 2276.42C4145.19 2293.85 4132.23 2326.27 4120.15 2352Z" />
		<path id="Path 61" class="shp33" d="M4100.13 2318.13C4101.27 2312.77 4111.85 2308.17 4116.35 2319.67C4120.85 2331.17 4105.81 2343.38 4101.85 2340.85C4097.87 2338.33 4098.21 2326.98 4100.13 2318.13Z" />
		<path id="Path 62" class="shp43" d="M3897.31 3249.92C3897.31 3249.92 3875.44 3267.79 3857.04 3271.77C3838.65 3275.75 3829 3285.17 3828.85 3296.08C3828.71 3307 3881.79 3314.19 3902.85 3303.19C3934.27 3286.75 3937.46 3291.71 3940.94 3283.5C3944.42 3275.29 3941.62 3253.56 3941.85 3250.94C3942.12 3247.73 3897.31 3249.92 3897.31 3249.92ZM3898.81 3243.98C3898.81 3243.98 3896.42 3252.9 3896.77 3253.08C3897.12 3253.27 3938.23 3257.87 3936.98 3250.71C3935.98 3244.92 3934.54 3238.6 3934.54 3238.6L3898.81 3243.98ZM4158.75 3264.23C4158.75 3264.23 4145.13 3284.83 4127.85 3288.98C4110.83 3293.06 4104.54 3299.54 4103.71 3309.83C4102.88 3320.1 4143.85 3333.56 4172.67 3315.52C4191.58 3303.65 4198.65 3304.33 4202.46 3296.79C4206.25 3289.25 4203.37 3268.02 4203.75 3265.56C4204.23 3262.54 4158.75 3264.23 4158.75 3264.23Z" />
		<path id="Path 63" class="shp44" d="M4163.31 3256.73C4163.31 3256.73 4162.46 3265.4 4162.79 3265.6C4163.13 3265.79 4201.06 3272.52 4200.83 3265.67C4200.65 3260.23 4198.44 3253.48 4198.44 3253.48L4163.31 3256.73Z" />
		<path id="Path 64" class="shp30" d="M4006.65 2733.37C4006.65 2733.37 3955.06 2861.29 3940.25 2904.73C3920.73 2961.88 3910 3012.23 3907.54 3039.62C3904.46 3074.08 3892.37 3236.71 3890.21 3246.77C3888.04 3256.85 3948.08 3253.48 3948.08 3253.48C3948.08 3253.48 3981.85 3048.42 3991.06 3011.71C3999.62 2977.54 4080.71 2822.52 4088.52 2831.85C4096.33 2841.17 4122.29 2999.85 4128.08 3026.81C4133.88 3053.77 4149.4 3265.92 4149.4 3265.92C4149.4 3265.92 4202.08 3274.38 4212.69 3265.92C4212.69 3265.92 4204.37 3076.75 4200.69 3026.21C4199.29 3006.96 4212.88 2795.69 4180.31 2710.48C4163.1 2665.46 4006.65 2733.37 4006.65 2733.37Z" />
		<path id="Path 65" class="shp15" d="M4062.29 2412.19C4062.29 2412.19 4017.67 2421.35 4011.9 2426.48C4005.6 2431.94 3993.06 2487.13 3992.4 2502.02C3991.73 2516.9 3995.56 2578.23 4001.85 2601.4C4008.13 2624.54 3996.29 2720.92 3992.31 2753C3992.31 2753 4069.67 2788.15 4200.44 2760.75C4200.44 2760.75 4177.48 2661 4181.33 2629.27C4186.29 2588.63 4199.5 2499.63 4199.5 2499.63C4199.5 2499.63 4211.5 2414.81 4200.44 2416.92C4164.19 2423.75 4117.35 2412.19 4117.35 2412.19L4062.29 2412.19Z" />
		<path id="Path 66" class="shp13" d="M4052.29 2422.52C4052.29 2422.52 4066 2432.81 4111.77 2412.63C4111.77 2412.63 4107.21 2387.71 4116.21 2358.37C4125.19 2329.06 4057.17 2388.94 4057.17 2388.94C4057.9 2389.46 4058.04 2392.4 4057.63 2396.48C4057.58 2396.75 4057.56 2397 4057.52 2397.27C4057.19 2400.23 4056.58 2403.71 4055.69 2407.27C4055.58 2407.71 4055.48 2408.15 4055.35 2408.6C4052.79 2418.4 4052.29 2413.96 4052.29 2422.52Z" />
		<path id="Path 67" class="shp45" d="M4055.69 2407.27C4088.5 2411.48 4106.4 2376.15 4106.92 2375.1C4084.46 2407.83 4057.54 2397.21 4057.54 2397.21C4057.21 2400.17 4056.58 2403.71 4055.69 2407.27Z" />
		<path id="Path 68" class="shp13" d="M4052.5 2414.31C4052.5 2414.31 4042 2429.92 4056.63 2432.56C4071.25 2435.23 4101.08 2431.98 4117.35 2412.19C4117.35 2412.19 4074.5 2403.96 4052.5 2414.31Z" />
		<path id="Path 69" class="shp15" d="M4127.94 2496.21C4123.29 2486.63 4135.04 2461.63 4154.94 2444.15C4170.69 2430.33 4187.48 2421.75 4195.69 2418.67C4203.87 2415.6 4259.85 2397.56 4262.56 2390.56C4265.98 2381.69 4280.85 2338.15 4282.06 2334.33C4284.46 2326.73 4312.4 2240.56 4312.4 2240.56L4347.21 2248.54C4347.21 2248.54 4321.25 2373.12 4318.02 2389.1C4315.9 2399.63 4314.1 2418.21 4290.67 2433.17C4266.83 2448.35 4214.63 2486.94 4209.38 2488.98C4204.12 2491 4148.62 2538.92 4127.94 2496.21Z" />
		<path id="Path 70" class="shp46" d="M4884.54 3765.92C4884.54 3765.92 4875.25 3768.79 4865.13 3776.19C4855 3783.58 4841.38 3795.67 4826.42 3798.38C4811.46 3801.08 4795.62 3800.85 4798.04 3816.87C4800.48 3832.9 4849.73 3840.79 4894.15 3827.23C4938.58 3813.67 4939.23 3812.44 4939.23 3808.48C4939.23 3804.54 4932.52 3764.85 4930.48 3763.5C4928.46 3762.15 4884.54 3765.92 4884.54 3765.92ZM5143.35 3751.15C5143.35 3751.15 5126.25 3768.85 5111.5 3771.83C5096.75 3774.81 5077.42 3779.6 5076.42 3789.27C5075.44 3798.96 5081.58 3801.48 5082.15 3802.06C5085.83 3804.9 5156.17 3807.46 5183.38 3797.21C5200.06 3790.9 5180.83 3738.63 5180.83 3738.63L5143.35 3751.15Z" />
		<path id="Path 71" class="shp33" d="M4990.4 2990.4C4990.4 2990.4 4940.08 3046.46 4941.75 3029.88C4942.75 3019.9 4938.08 3002.6 4934.23 2990.4C4931.67 2982.31 4929.46 2976.48 4929.46 2976.48L4929.46 2976.48C4929.88 2975.69 4984.21 2898.6 4982.23 2922.71C4980.25 2946.96 4990.4 2990.4 4990.4 2990.4Z" />
		<path id="Path 72" class="shp30" d="M4971.81 3412.94C4971.81 3412.94 4949.71 3489.96 4953.44 3503.62C4957.17 3517.31 4995.17 3567.15 5000.31 3574.65C5007.25 3584.69 5117.35 3757.52 5118.6 3760.42C5119.83 3763.31 5182.06 3748.35 5184.54 3735.08C5184.54 3735.08 5097.33 3556.08 5076.63 3532.46C5055.9 3508.81 5051.08 3484.31 5054.4 3456.94C5057.73 3429.58 5098.17 3340.92 5091.96 3304.44C5085.73 3267.96 4975.54 3374.44 4971.81 3412.94ZM4930.83 3310.4C4930.83 3310.4 4782.33 3422.92 4765.71 3445.92C4749.08 3468.92 4767.73 3503.12 4770.21 3514.31C4772.71 3525.5 4872.83 3747.04 4874.06 3766.31C4874.06 3766.31 4941.25 3771.92 4953.06 3757C4953.06 3757 4879.98 3546.71 4869.4 3510.65C4858.83 3474.58 4895.19 3465.81 4924.42 3452.75C4953.65 3439.71 5081.92 3364.44 5089.37 3336.1C5096.21 3310.25 5089.46 3290.77 5089.46 3290.77C5089.46 3290.77 5053.52 3267.54 4930.83 3310.4Z" />
		<path id="Path 73" class="shp47" d="M4922.9 3082.79C4922.9 3082.79 4823.29 3048 4825.02 3026.38C4826.75 3004.75 4914.17 2898 4914.17 2898L4943.75 2917.25L4901.21 3028.71L4976.67 3057.13L4922.9 3082.79Z" />
		<path id="Path 74" class="shp15" d="M4996.19 2987.31C4996.19 2987.31 4984.75 2964.02 4984.54 2959.04C4984.54 2959.04 4934.42 2998.5 4929.46 3007.83C4929.46 3007.83 4932.1 3025.04 4930.25 3033.54L4996.19 2987.31ZM4996.19 2987.31C4996.19 2987.31 4986.25 2982.33 4970.9 2992.29C4955.56 3002.23 4902.85 3055.02 4893.33 3058.33C4893.33 3058.33 4916.02 3157.13 4917.25 3183.23C4918.5 3209.35 4935.6 3346 4925.65 3363.42C4925.65 3363.42 4963.87 3352.98 5011.04 3337.38C5060.19 3321.15 5105.75 3293.58 5105.75 3293.58C5105.75 3293.58 5072.19 3211.44 5068.81 3185.02C5065.27 3157.48 5037.85 3020.65 4996.19 2987.31Z" />
		<path id="Path 75" class="shp33" d="M4868.75 2923.46C4868.75 2923.46 4860.54 2914.98 4859.29 2895.19C4857.94 2873.65 4858.69 2881.27 4858.69 2881.27L4868.75 2923.46Z" />
		<path id="Path 76" class="shp48" d="M4922.15 2913.63C4922.15 2913.63 4897.69 2901.08 4885.5 2901.08C4872.54 2901.1 4859.4 2910.06 4859.4 2910.06C4859.4 2910.06 4853.88 2890.21 4858.56 2882.31C4863.25 2874.42 4922.15 2913.63 4922.15 2913.63Z" />
		<path id="Path 77" class="shp49" d="M4964.73 2937.6C4964.73 2937.6 4958.42 2973.35 4934.29 2990.35C4934.27 2990.37 4934.25 2990.37 4934.23 2990.4C4931.67 2982.31 4929.46 2976.48 4929.46 2976.48L4929.46 2976.48C4929.83 2976.27 4954.08 2962.85 4964.73 2937.6Z" />
		<path id="Path 78" class="shp17" d="M4904.4 2868.42C4904.4 2868.42 4888.02 2917.08 4886.4 2928.37C4884.75 2939.65 4851.21 2917.83 4851.21 2917.83C4851.21 2917.83 4866.46 2876.5 4869.79 2856.35C4873.15 2836.23 4904.4 2868.42 4904.4 2868.42Z" />
		<path id="Path 79" class="shp15" d="M5010.4 3055.73C5007.81 3041.87 4992.98 3027.25 4978.9 3026.44C4947.98 3024.65 4878.1 3024.46 4875.83 3020.48C4872.96 3015.42 4906.88 2879.63 4906.88 2879.63C4906.88 2879.63 4878.33 2867.98 4860.56 2866.35C4860.56 2866.35 4784.29 3067.83 4793.33 3073.9C4826.21 3095.98 4972.71 3101.52 4972.71 3101.52C4972.71 3101.52 5003.58 3094.29 5009.44 3073.67C5011.33 3066.96 5011.37 3060.96 5010.4 3055.73Z" />
		<path id="Path 80" class="shp17" d="M4891.38 2796.42C4891.38 2796.42 4887.08 2800.06 4885.98 2802.58C4885.98 2802.58 4884.33 2807.31 4882.96 2810.58C4882.52 2811.63 4882.1 2812.54 4881.79 2813.08C4880.44 2815.4 4876.79 2820.06 4875.1 2826.52C4873.42 2832.98 4869.79 2856.35 4869.79 2856.35L4889.19 2862.98L4904.4 2868.42C4904.4 2868.42 4932.98 2845.17 4935.23 2839.35C4935.46 2838.77 4935.65 2838.21 4935.79 2837.65C4937.23 2832.52 4936.15 2828.1 4936.58 2825.33C4936.75 2824.31 4937.65 2814.08 4935.46 2811.92C4932.42 2808.92 4929.1 2808.08 4926.23 2808.69C4926.23 2808.69 4920.04 2803.08 4914.42 2802.81C4914.42 2802.81 4908.85 2797.46 4901.77 2799.1C4901.77 2799.1 4895.52 2794.31 4891.38 2796.42Z" />
		<path id="Path 81" class="shp13" d="M4865.73 2878.06C4865.73 2878.06 4859.46 2908.42 4867.67 2910.4C4874.44 2912.02 4869.6 2941.44 4869.21 2946.12C4868.83 2950.81 4881.83 2950.23 4885.23 2952.15C4888.6 2954.08 4906.17 2984.98 4916.44 2983C4926.71 2981.02 4966.92 2951.94 4975.33 2935.56C4983.75 2919.17 4976.56 2858.75 4961.15 2836.98C4945.73 2815.19 4876.92 2824.94 4865.73 2878.06Z" />
		<path id="Path 82" class="shp15" d="M4864.35 2882.54C4864.35 2882.54 4853.79 2875.02 4860.17 2840.62C4867.52 2800.98 4940.71 2823.63 4946.56 2823.4C4952.42 2823.17 4989.79 2819.71 4987.35 2874.4C4984.75 2933.12 4982 2932.02 4982 2932.02C4982 2932.02 4969.38 2900.83 4958.9 2901.5C4947.52 2902.21 4929.25 2905.08 4929.25 2905.08C4929.25 2905.08 4931.12 2877.83 4915.69 2878.69C4900.23 2879.54 4877.31 2872.77 4864.35 2882.54Z" />
		<path id="Path 83" class="shp13" d="M4936 2906.75C4935.85 2903.67 4935.31 2889.85 4945.94 2888.77C4956.54 2887.69 4957.9 2904.48 4952.87 2916.04C4947.85 2927.58 4936.77 2923.94 4936 2906.75Z" />
		<path id="Path 84" class="shp25" d="M1003.31 2697.77L1212.03 2697.77L1212.03 2849.04L1212.03 2880.92L1180.16 2849.04L1003.31 2849.04L1003.31 2697.77Z" />
		<path id="Path 85" class="shp50" d="M1466.34 3743.38L1424.38 3464.29L1432.46 3463.04L1474.42 3742.13L1466.34 3743.38ZM1415.1 3743.38L1373.13 3464.29L1381.21 3463.04L1423.18 3742.13L1415.1 3743.38ZM1162.7 3743.38L1154.61 3742.13L1196.58 3463.04L1204.66 3464.29L1162.7 3743.38Z" />
		<path id="Path 86" class="shp51" d="M1437.5 3467.13L1470.38 3121.29C1470.38 3121.29 1412.89 3113.77 1378.14 3115.62L1325.93 3467.13L1437.5 3467.13ZM1437.5 3449.56L1325.93 3449.56L1325.93 3467.13L1437.5 3467.13L1437.5 3449.56ZM1252.94 3453.04L1235.5 3123.46C1235.5 3123.46 1381 3107.67 1470.38 3121.29L1252.94 3453.04Z" />
		<path id="Path 87" class="shp36" d="M1369.13 3016.75C1369.13 3016.75 1391.6 2950.85 1348.72 2930.44C1305.85 2910 1269.44 2939.54 1262.57 2955.52C1255.69 2971.48 1257.51 3000.54 1263.37 3020.81C1269.24 3041.06 1268.39 3071.9 1255.64 3082.23C1242.9 3092.54 1227.1 3109.67 1227.89 3144.54C1228.37 3166.17 1313.02 3089.19 1313.02 3089.19L1369.13 3016.75Z" />
		<path id="Path 88" class="shp52" d="M1311.92 3725.77C1311.92 3725.77 1310.59 3772.33 1317.24 3775.13C1323.88 3777.94 1349.05 3761.75 1360.15 3745.73C1371.25 3729.71 1346.24 3692.44 1342.14 3671.9C1340.42 3663.27 1320.86 3647.79 1311.33 3652.23C1301.79 3656.67 1294.83 3668.04 1294.83 3668.04C1294.83 3668.04 1319.1 3684.67 1311.92 3725.77Z" />
		<path id="Path 89" class="shp53" d="M1294.83 3668.04C1294.83 3668.04 1303.09 3683.92 1307.34 3696.25C1311.58 3708.58 1312.38 3742.73 1315.05 3745.1C1317.72 3747.46 1338.81 3736.83 1341.63 3724.06C1344.44 3711.29 1335.89 3685.77 1327.75 3672.35C1319.61 3658.94 1311.33 3652.23 1311.33 3652.23C1311.33 3652.23 1296.95 3655.02 1294.83 3668.04Z" />
		<path id="Path 90" class="shp52" d="M1342.14 3671.9L1364.8 3704.96L1360.51 3707.9L1342.99 3682.33L1342.14 3671.9Z" />
		<path id="Path 91" class="shp53" d="M1260.57 3306.21C1260.57 3306.21 1271.65 3324.92 1260.57 3338.54C1249.49 3352.17 1174.98 3389.6 1175.53 3411.21C1176.07 3432.83 1189.72 3466.67 1194.62 3475.25C1199.53 3483.83 1217.62 3519.44 1227.02 3540.29C1236.43 3561.13 1290.78 3660.85 1301.41 3683.33C1312.04 3705.81 1305.49 3593.42 1305.49 3593.42L1251.14 3434.02L1378.14 3310.29C1378.14 3310.29 1362.77 3276.08 1260.57 3306.21Z" />
		<path id="Path 92" class="shp34" d="M1308.89 3095.13C1308.89 3095.13 1273.65 3102.94 1259.66 3111.13C1245.67 3119.29 1214.61 3156.9 1214.61 3173.06C1214.61 3189.23 1350.45 3204.33 1350.45 3204.33L1376.2 3298.33C1376.2 3298.33 1444.86 3281.58 1453.04 3267.69C1461.21 3253.79 1426 3154.88 1421.1 3134.04C1416.19 3113.19 1390.51 3099.15 1361.9 3095.13C1333.29 3091.12 1308.89 3095.13 1308.89 3095.13Z" />
		<path id="Path 93" class="shp13" d="M1392.18 3309.31C1392.18 3309.31 1389.72 3325.38 1396.26 3332.19C1402.8 3339 1432.92 3378.73 1416.97 3417.75C1402.33 3453.58 1373.92 3452.9 1373.92 3452.9L1329.96 3452.9C1329.96 3452.9 1342.72 3517.4 1338.6 3559.92C1334.48 3602.42 1315.09 3699.48 1314.68 3704.37C1314.27 3709.29 1296.09 3724.6 1290.78 3716.85C1290.78 3716.85 1290.29 3658.4 1287.43 3636.33C1284.57 3614.27 1272.39 3525.98 1268.71 3512.9C1265.03 3499.83 1243.37 3460.19 1243.37 3456.1C1243.37 3452 1222.22 3388.02 1268.4 3371.67C1314.58 3355.33 1330.9 3309.65 1392.18 3309.31Z" />
		<path id="Path 94" class="shp54" d="M1268.9 3761.92C1268.9 3761.92 1238.58 3797.29 1241.99 3803.65C1245.39 3810 1275.14 3813.25 1293.84 3807.77C1312.54 3802.31 1316.53 3757.6 1326.27 3739.04C1330.35 3731.27 1324.89 3706.92 1314.68 3704.37C1304.48 3701.83 1291.91 3706.29 1291.91 3706.29C1291.91 3706.29 1300.33 3734.48 1268.9 3761.92Z" />
		<path id="Path 95" class="shp13" d="M1291.91 3706.29C1291.91 3706.29 1288.34 3723.83 1283.89 3736.1C1279.43 3748.35 1258.58 3775.4 1259.17 3778.92C1259.76 3782.46 1282.85 3787.44 1293.06 3779.29C1303.28 3771.12 1312.68 3745.92 1314.79 3730.35C1316.9 3714.81 1314.68 3704.37 1314.68 3704.37C1314.68 3704.37 1301.74 3697.5 1291.91 3706.29Z" />
		<path id="Path 96" class="shp54" d="M1326.27 3739.04L1323.09 3779L1317.91 3778.58L1320.37 3747.69L1326.27 3739.04Z" />
		<path id="Path 97" class="shp15" d="M1416.97 3417.75C1403.14 3454.06 1373.92 3452.9 1373.92 3452.9L1329.96 3452.9C1329.96 3452.9 1311.62 3423.83 1266.72 3418.85C1256.77 3417.75 1245.51 3417.81 1232.85 3419.65C1232.7 3419.67 1232.55 3419.69 1232.4 3419.73C1172.74 3428.56 1184.26 3450.46 1184.44 3451.02C1179.48 3438.92 1174.27 3419.67 1175.53 3409.31C1181.25 3362.08 1249.48 3352.17 1260.57 3338.54C1271.65 3324.92 1260.57 3306.21 1260.57 3306.21C1362.77 3276.08 1378.14 3310.29 1378.14 3310.29C1382.62 3309.67 1394.1 3303.06 1398.99 3303.04C1398.99 3303.04 1404.1 3314.21 1407.71 3324.29C1410.89 3333.19 1431.98 3378.35 1416.97 3417.75Z" />
		<path id="Path 98" class="shp55" d="M1374.57 3157.75L1389.69 3298.33L1190.65 3298.33L1175.53 3157.75L1374.57 3157.75ZM1405.53 3285.69L1372.29 3285.69L1372.29 3298.33L1405.53 3298.33L1405.53 3285.69Z" />
		<path id="Path 99" class="shp56" d="M1687.39 3317.48L1053.48 3317.48L1053.48 3298.33L1687.39 3298.33L1687.39 3317.48Z" />
		<path id="Path 100" class="shp13" d="M1330.91 2941.67C1330.91 2941.67 1375.5 2954.88 1369.13 3016.75C1362.76 3078.62 1333.64 3075.46 1330.91 3075.9C1328.18 3076.35 1293.6 3078.62 1282.68 3003.56C1271.75 2928.48 1330.91 2941.67 1330.91 2941.67ZM1352.16 3064.52C1352.16 3064.52 1349.8 3085.02 1353.74 3097.75C1357.69 3110.5 1301.8 3110.85 1301.84 3100.38C1301.87 3088.46 1307.55 3078.52 1302.2 3058.12C1296.85 3037.73 1352.16 3064.52 1352.16 3064.52Z" />
		<path id="Path 101" class="shp36" d="M1319.4 2969.27C1319.4 2969.27 1343.63 3007.81 1369.13 3016.75C1369.13 3016.75 1383.06 2952.08 1325.54 2938.52C1268.03 2924.98 1277.04 3003.85 1281.33 3024.88C1281.33 3024.88 1293.31 2993.94 1319.4 2969.27Z" />
		<path id="Path 102" class="shp45" d="M1308.81 3067.13C1308.81 3067.13 1326.46 3085.52 1349.02 3069.06C1349.02 3069.06 1347.16 3080.81 1330.93 3082.31C1314.7 3083.83 1308.81 3067.13 1308.81 3067.13Z" />
		<path id="Path 103" class="shp57" d="M1286.9 2963.46C1286.9 2963.46 1299.65 2938.75 1321.19 2937.65C1342.73 2936.56 1355.54 2955.23 1355.54 2955.23C1355.54 2955.23 1347.13 2934.21 1321.22 2934.21C1295.31 2934.21 1286.9 2963.46 1286.9 2963.46Z" />
		<path id="Path 104" class="shp13" d="M1359.45 3094.81C1359.45 3094.81 1358.66 3137.65 1324.69 3138.92C1290.72 3140.19 1297.79 3097.83 1297.79 3097.83C1297.79 3097.83 1322.64 3087.77 1359.45 3094.81Z" />
		<path id="Path 105" class="shp58" d="M1673.31 3800.63L1687.39 3800.63L1687.39 3317.48L1673.31 3317.48L1673.31 3800.63ZM1053.48 3800.63L1067.56 3800.63L1067.56 3317.48L1053.48 3317.48L1053.48 3800.63Z" />
		<path id="Path 106" fill-rule="evenodd" class="shp34" d="M2704.17 1109.38C2707.94 1081.87 2705.37 1052.08 2702.42 1031.43C2674.79 997.99 2665.5 953.36 2677.58 911.71C2697.65 842.52 2770.27 802.56 2839.46 822.63C2908.65 842.7 2948.6 915.32 2928.52 984.51C2917.6 1022.18 2890.75 1052.55 2854.73 1068.07C2839.75 1092.02 2829.04 1114.56 2822.9 1135.11C2822.83 1135.42 2822.76 1135.73 2822.68 1136.03L2823.1 1136.12L2810.37 1194.88L2795.8 1191.72L2792.54 1206.75L2701.98 1187.12L2705.23 1172.09L2690.67 1168.94L2703.4 1110.19L2703.98 1110.31C2704.04 1110 2704.1 1109.69 2704.17 1109.38ZM2836.48 832.9C2772.96 814.47 2706.27 851.16 2687.83 914.69C2676.6 953.39 2685.48 994.89 2711.58 1025.71L2712.56 1026.87L2712.79 1028.39C2715.92 1049.82 2718.79 1081.56 2714.73 1111.04L2714.67 1111.44C2714.58 1111.82 2714.51 1112.2 2714.44 1112.58L2733.71 1116.75L2745.6 980.54L2769.63 1010.67L2791.81 994.45L2803.46 1016.47L2835.44 999.16L2791.67 1129.31L2812.24 1133.77C2812.33 1133.4 2812.42 1133.02 2812.5 1132.64L2812.54 1132.44L2812.6 1132.25C2819.15 1110.31 2830.56 1086.33 2846.58 1060.96L2847.48 1059.52L2849.04 1058.88C2882.85 1044.81 2908.08 1016.62 2918.27 981.53C2936.69 918 2900 851.33 2836.48 832.9ZM2816.65 1021.49L2799.06 1031.01L2788.15 1010.37L2767.65 1025.34L2753.92 1008.13L2744.23 1119.04L2781.16 1127.04L2816.65 1021.49Z" />
		<path id="Path 107" class="shp59" d="M1087.92 2093.77L1081.46 2091.56L1135.62 1933.91L1256.62 1900.4L1298.25 1727.57L1391.43 1685.15L1410.86 1550.91L1417.62 1551.89L1397.65 1689.82L1304.1 1732.41L1262.32 1905.91L1140.91 1939.53L1087.92 2093.77Z" />
		<path id="Path 108" class="shp10" d="M1273.44 1891.47C1279.89 1899.18 1278.87 1910.67 1271.16 1917.12C1263.44 1923.58 1251.95 1922.56 1245.5 1914.85C1239.04 1907.13 1240.06 1895.65 1247.78 1889.19C1255.49 1882.73 1266.98 1883.75 1273.44 1891.47Z" />
		<path id="Path 109" fill-rule="evenodd" class="shp59" d="M1273.35 1919.75C1264.2 1927.4 1250.53 1926.19 1242.88 1917.04C1235.23 1907.89 1236.44 1894.22 1245.59 1886.57C1254.73 1878.91 1268.4 1880.13 1276.05 1889.28C1283.71 1898.42 1282.49 1912.09 1273.35 1919.75ZM1249.97 1891.81C1243.71 1897.04 1242.88 1906.4 1248.12 1912.66C1253.35 1918.91 1262.71 1919.74 1268.96 1914.51C1275.22 1909.27 1276.05 1899.92 1270.82 1893.66C1265.58 1887.4 1256.23 1886.57 1249.97 1891.81Z" />
		<path id="Path 110" class="shp10" d="M1315.65 1719.34C1322.1 1727.05 1321.08 1738.54 1313.37 1745C1305.65 1751.45 1294.17 1750.43 1287.71 1742.72C1281.25 1735 1282.28 1723.51 1289.99 1717.06C1297.7 1710.6 1309.19 1711.62 1315.65 1719.34Z" />
		<path id="Path 111" fill-rule="evenodd" class="shp59" d="M1315.56 1747.61C1306.41 1755.27 1292.74 1754.06 1285.09 1744.91C1277.44 1735.76 1278.65 1722.09 1287.8 1714.44C1296.95 1706.78 1310.61 1708 1318.27 1717.15C1325.92 1726.29 1324.71 1739.96 1315.56 1747.61ZM1292.18 1719.68C1285.92 1724.91 1285.09 1734.27 1290.33 1740.52C1295.57 1746.78 1304.92 1747.61 1311.18 1742.38C1317.44 1737.14 1318.26 1727.79 1313.03 1721.53C1307.79 1715.27 1298.44 1714.44 1292.18 1719.68Z" />
		<path id="Path 112" class="shp10" d="M1407.38 1675.76C1413.83 1683.47 1412.81 1694.96 1405.1 1701.41C1397.38 1707.87 1385.89 1706.85 1379.44 1699.14C1372.98 1691.42 1374 1679.93 1381.72 1673.48C1389.43 1667.02 1400.92 1668.04 1407.38 1675.76Z" />
		<path id="Path 113" fill-rule="evenodd" class="shp59" d="M1407.29 1704.04C1398.14 1711.69 1384.47 1710.47 1376.82 1701.33C1369.16 1692.18 1370.38 1678.51 1379.52 1670.86C1388.67 1663.2 1402.34 1664.42 1409.99 1673.57C1417.65 1682.71 1416.44 1696.38 1407.29 1704.04ZM1383.91 1676.1C1377.65 1681.33 1376.82 1690.69 1382.06 1696.95C1387.29 1703.2 1396.65 1704.03 1402.9 1698.8C1409.16 1693.56 1409.99 1684.21 1404.76 1677.95C1399.52 1671.69 1390.17 1670.86 1383.91 1676.1Z" />
		<path id="Path 114" class="shp10" d="M1152.93 1926.57C1159.38 1934.28 1158.36 1945.77 1150.65 1952.23C1142.93 1958.68 1131.45 1957.66 1124.99 1949.95C1118.53 1942.23 1119.55 1930.75 1127.27 1924.29C1134.98 1917.83 1146.47 1918.85 1152.93 1926.57Z" />
		<path id="Path 115" fill-rule="evenodd" class="shp59" d="M1152.84 1954.85C1143.69 1962.5 1130.02 1961.29 1122.37 1952.14C1114.72 1942.99 1115.93 1929.33 1125.08 1921.67C1134.22 1914.02 1147.89 1915.23 1155.55 1924.38C1163.2 1933.53 1161.99 1947.19 1152.84 1954.85ZM1129.46 1926.91C1123.2 1932.15 1122.37 1941.5 1127.61 1947.76C1132.85 1954.01 1142.2 1954.85 1148.46 1949.61C1154.71 1944.37 1155.55 1935.02 1150.31 1928.76C1145.07 1922.5 1135.72 1921.67 1129.46 1926.91Z" />
		<path id="Path 116" class="shp60" d="M4614.98 1657.86L4908.08 1657.86L4908.08 1637.31L4614.98 1637.31L4614.98 1657.86ZM4614.98 1762.41L4908.08 1762.41L4908.08 1676.03L4614.98 1676.03L4614.98 1762.41ZM4477.29 1804.36L4650.21 1804.36L4650.21 1791.45L4477.29 1791.45L4477.29 1804.36ZM4477.29 1844.96L4650.21 1844.96L4650.21 1810.01L4477.29 1810.01L4477.29 1844.96Z" />
		<path id="Path 117" class="shp61" d="M4956.21 1526.57L4969.1 1526.57L4969.1 1768.59L4956.21 1768.59L4956.21 1526.57Z" />
		<path id="Path 118" class="shp62" d="M4956.69 2367.46L4745.71 2249.46L4818.23 2244.69L4956.69 2367.46Z" />
		<path id="Path 119" class="shp63" d="M4956.69 2367.46L4891.77 2263.04L4837.29 2261.58L4956.69 2367.46Z" />
		<path id="Path 120" class="shp64" d="M4794.23 2276.6L4790 2303.19L4956.69 2367.46L4794.23 2276.6Z" />
		<path id="Path 121" class="shp65" d="M1836.03 1929.79L1834.75 1929.67C1810.3 1927.5 1786.4 1926.5 1763.59 1926.4C1754.61 1926.4 1745.81 1926.57 1737.19 1926.9L1736.55 1910.24C1745.4 1909.9 1754.7 1909.74 1763.66 1909.73C1786.89 1909.73 1811.31 1910.85 1836.23 1913.07L1837.47 1913.18L1836.03 1929.79ZM2033.68 1955.01C1999.65 1949.55 1966.46 1944.72 1935.03 1940.67L1937.16 1924.14C1968.76 1928.21 2002.13 1933.06 2036.32 1938.56L2033.68 1955.01ZM1547.24 1970.29L1539.98 1955.28C1569.25 1941.12 1601.6 1930.11 1636.11 1922.58L1639.67 1938.86C1606.43 1946.12 1575.34 1956.69 1547.24 1970.29ZM2229.98 1991.05C2194.73 1983.93 2162.69 1977.72 2131.98 1972.05L2135 1955.66C2165.79 1961.35 2197.94 1967.58 2233.27 1974.71L2229.98 1991.05ZM2425.54 2032.23C2392.83 2025.2 2360.25 2018.19 2327.79 2011.32L2331.25 1995.02C2363.73 2001.89 2396.31 2008.9 2429.04 2015.94L2425.54 2032.23ZM4108.58 2050.41L4107.33 2033.79C4141.44 2031.24 4175.21 2029.77 4207.77 2029.44L4207.94 2046.1C4175.75 2046.43 4142.31 2047.88 4108.58 2050.41ZM4405.83 2059.35C4374.21 2054.48 4341.04 2050.89 4307.23 2048.7L4308.29 2032.07C4342.6 2034.29 4376.27 2037.93 4408.38 2042.88L4405.83 2059.35ZM2621.27 2073.55C2588.48 2066.89 2555.83 2060.06 2523.31 2053.17L2526.77 2036.86C2559.25 2043.75 2591.83 2050.56 2624.6 2057.22L2621.27 2073.55ZM3911.21 2076.07L3908.25 2059.67C3941.75 2053.6 3975.1 2048.37 4007.44 2044.13L4009.6 2060.66C3977.54 2064.86 3944.46 2070.05 3911.21 2076.07ZM1403.89 2098.81L1389.79 2089.92C1408.38 2060.48 1430.42 2034.22 1455.3 2011.88L1466.44 2024.28C1442.7 2045.6 1421.65 2070.68 1403.89 2098.81ZM2818.08 2110.44C2786.35 2105.1 2754.1 2099.33 2719.5 2092.81L2722.58 2076.44C2757.08 2082.94 2789.23 2088.69 2820.85 2094L2818.08 2110.44ZM4596.62 2110.54C4567.31 2098.6 4535.75 2088.13 4502.83 2079.42L4507.08 2063.31C4540.69 2072.19 4572.94 2082.89 4602.92 2095.13L4596.62 2110.54ZM3715.75 2117.6L3712.5 2101.25C3736.37 2096.52 3760.5 2091.29 3784.19 2085.67C3792.83 2083.62 3801.42 2081.64 3809.92 2079.71L3813.6 2095.98C3805.15 2097.88 3796.63 2099.85 3788.04 2101.9C3764.15 2107.54 3739.81 2112.83 3715.75 2117.6ZM3016.48 2138.65C2984.31 2135 2950.88 2130.71 2917.08 2125.88L2919.44 2109.4C2953.06 2114.19 2986.35 2118.46 3018.35 2122.08L3016.48 2138.65ZM3517.15 2146.56L3515.56 2129.98C3548.6 2126.83 3581.85 2122.81 3614.4 2118.08L3616.79 2134.58C3583.98 2139.35 3550.46 2143.4 3517.15 2146.56ZM3216.4 2154.21C3183.73 2152.9 3150.04 2150.9 3116.27 2148.23L3117.58 2131.63C3151.13 2134.25 3184.6 2136.25 3217.06 2137.54L3216.4 2154.21ZM3316.71 2156.15L3316.67 2139.48C3350.08 2139.42 3383.58 2138.58 3416.25 2137.04L3417.02 2153.69C3384.13 2155.25 3350.38 2156.08 3316.71 2156.15ZM4752.6 2207.67C4751.75 2206.69 4731.19 2183.56 4684.63 2154.79L4693.38 2140.62C4742.04 2170.67 4764.21 2195.62 4765.13 2196.67L4752.6 2207.67ZM1337.92 2282.77L1321.47 2280.1C1327.12 2245.33 1335.38 2212.23 1346.04 2181.71L1361.77 2187.21C1351.44 2216.81 1343.41 2248.96 1337.92 2282.77ZM1317.3 2482.17C1317.1 2480.79 1312.27 2447.77 1312.27 2397.44C1312.27 2392.13 1312.33 2386.6 1312.45 2380.92L1329.11 2381.27C1328.99 2386.83 1328.94 2392.23 1328.94 2397.44C1328.94 2446.44 1333.74 2479.4 1333.79 2479.73L1317.3 2482.17Z" />
	</g>
</svg>