<svg height="60px" viewBox="0 0 64 64" width="60px" xmlns="http://www.w3.org/2000/svg" xmlns:xlink="http://www.w3.org/1999/xlink"><linearGradient id="New_Gradient_Swatch_3" gradientUnits="userSpaceOnUse" x1="33.138" x2="31.069" y1="65.293" y2="1.153"><stop offset="0" stop-color="#006df0"/><stop offset="1" stop-color="#00e7f0"/></linearGradient><linearGradient id="New_Gradient_Swatch_3-2" x1="33.074" x2="31.005" xlink:href="#New_Gradient_Swatch_3" y1="65.295" y2="1.155"/><linearGradient id="New_Gradient_Swatch_3-4" x1="30.915" x2="28.846" xlink:href="#New_Gradient_Swatch_3" y1="65.364" y2="1.225"/><linearGradient id="New_Gradient_Swatch_3-5" x1="36.909" x2="34.84" xlink:href="#New_Gradient_Swatch_3" y1="65.171" y2="1.032"/><linearGradient id="New_Gradient_Swatch_3-6" x1="43.483" x2="41.414" xlink:href="#New_Gradient_Swatch_3" y1="64.959" y2=".82"/><linearGradient id="New_Gradient_Swatch_3-7" x1="23.439" x2="21.37" xlink:href="#New_Gradient_Swatch_3" y1="65.606" y2="1.466"/><linearGradient id="New_Gradient_Swatch_3-8" x1="42.838" x2="40.769" xlink:href="#New_Gradient_Swatch_3" y1="64.98" y2=".84"/><linearGradient id="New_Gradient_Swatch_3-9" x1="22.794" x2="20.725" xlink:href="#New_Gradient_Swatch_3" y1="65.626" y2="1.487"/><linearGradient id="New_Gradient_Swatch_3-10" x1="32.462" x2="30.393" xlink:href="#New_Gradient_Swatch_3" y1="65.314" y2="1.175"/><linearGradient id="New_Gradient_Swatch_3-11" x1="40.453" x2="38.384" xlink:href="#New_Gradient_Swatch_3" y1="65.057" y2=".917"/><linearGradient id="New_Gradient_Swatch_3-12" x1="24.47" x2="22.401" xlink:href="#New_Gradient_Swatch_3" y1="65.572" y2="1.433"/><g id="Mobile"><path d="m40 22h-16a1 1 0 0 0 -1 1v14a1 1 0 0 0 1 1h16a1 1 0 0 0 1-1v-14a1 1 0 0 0 -1-1zm-7 2v3.382l-.553-.277a1 1 0 0 0 -.894 0l-.553.277v-3.382zm6 12h-14v-12h4v5a1 1 0 0 0 1.447.895l1.553-.777 1.553.777a1 1 0 0 0 1.447-.895v-5h4z" fill="url(#New_Gradient_Swatch_3)"/><path d="m48 62h-32a5.006 5.006 0 0 1 -5-5v-50a5.006 5.006 0 0 1 5-5h32a5.006 5.006 0 0 1 5 5v50a5.006 5.006 0 0 1 -5 5zm-32-58a3 3 0 0 0 -3 3v50a3 3 0 0 0 3 3h32a3 3 0 0 0 3-3v-50a3 3 0 0 0 -3-3z" fill="url(#New_Gradient_Swatch_3-2)"/><path d="m46 58h-28a3 3 0 0 1 -3-3v-46a3 3 0 0 1 3-3h4a3 3 0 0 1 3 3 1 1 0 0 0 1 1h12a1 1 0 0 0 1-1 3 3 0 0 1 3-3h4a3 3 0 0 1 3 3v46a3 3 0 0 1 -3 3zm-28-50a1 1 0 0 0 -1 1v46a1 1 0 0 0 1 1h28a1 1 0 0 0 1-1v-46a1 1 0 0 0 -1-1h-4a1 1 0 0 0 -1 1 3 3 0 0 1 -3 3h-12a3 3 0 0 1 -3-3 1 1 0 0 0 -1-1z" fill="url(#New_Gradient_Swatch_3-2)"/><path d="m30 7h-2a1 1 0 0 1 0-2h2a1 1 0 0 1 0 2z" fill="url(#New_Gradient_Swatch_3-4)"/><path d="m36 7h-2a1 1 0 0 1 0-2h2a1 1 0 0 1 0 2z" fill="url(#New_Gradient_Swatch_3-5)"/><path d="m44 24a1 1 0 0 1 -1-1v-3h-3a1 1 0 0 1 0-2h4a1 1 0 0 1 1 1v4a1 1 0 0 1 -1 1z" fill="url(#New_Gradient_Swatch_3-6)"/><path d="m20 24a1 1 0 0 1 -1-1v-4a1 1 0 0 1 1-1h4a1 1 0 0 1 0 2h-3v3a1 1 0 0 1 -1 1z" fill="url(#New_Gradient_Swatch_3-7)"/><path d="m44 42h-4a1 1 0 0 1 0-2h3v-3a1 1 0 0 1 2 0v4a1 1 0 0 1 -1 1z" fill="url(#New_Gradient_Swatch_3-8)"/><path d="m24 42h-4a1 1 0 0 1 -1-1v-4a1 1 0 0 1 2 0v3h3a1 1 0 0 1 0 2z" fill="url(#New_Gradient_Swatch_3-9)"/><path d="m34 54h-4a1 1 0 0 1 -1-1v-4a1 1 0 0 1 1-1h4a1 1 0 0 1 1 1v4a1 1 0 0 1 -1 1zm-3-2h2v-2h-2z" fill="url(#New_Gradient_Swatch_3-10)"/><path d="m42 54h-4a1 1 0 0 1 -1-1v-4a1 1 0 0 1 1-1h4a1 1 0 0 1 1 1v4a1 1 0 0 1 -1 1zm-3-2h2v-2h-2z" fill="url(#New_Gradient_Swatch_3-11)"/><path d="m26 54h-4a1 1 0 0 1 -1-1v-4a1 1 0 0 1 1-1h4a1 1 0 0 1 1 1v4a1 1 0 0 1 -1 1zm-3-2h2v-2h-2z" fill="url(#New_Gradient_Swatch_3-12)"/></g></svg>
