<svg height="512pt" viewBox="0 -21 512 512" width="512pt" xmlns="http://www.w3.org/2000/svg"><path d="m224.121094 75.058594v344.691406h-198.78125c-14.003906 0-25.339844-11.347656-25.339844-25.351562v-294c0-14.003907 11.335938-25.339844 25.339844-25.339844zm0 0" fill="#bce8f1"/><path d="m512 100.398438v294c0 14.003906-11.347656 25.351562-25.339844 25.351562h-230.660156v-344.691406h230.660156c13.992188 0 25.339844 11.335937 25.339844 25.339844zm0 0" fill="#bce8f1"/><path d="m73.121094 75.058594h151v344.691406h-151zm0 0" fill="#95dae8"/><path d="m256 75.058594h182.855469v344.691406h-182.855469zm0 0" fill="#95dae8"/><g fill="#353a59"><path d="m116.144531 277.476562h-71.363281c-4.332031 0-7.835938-3.507812-7.835938-7.835937s3.503907-7.835937 7.835938-7.835937h71.363281c4.328125 0 7.835938 3.507812 7.835938 7.835937s-3.507813 7.835937-7.835938 7.835937zm0 0"/><path d="m116.144531 311.6875h-71.363281c-4.332031 0-7.835938-3.507812-7.835938-7.835938 0-4.328124 3.503907-7.839843 7.835938-7.839843h71.363281c4.328125 0 7.835938 3.511719 7.835938 7.839843 0 4.328126-3.507813 7.835938-7.835938 7.835938zm0 0"/><path d="m116.144531 347.128906h-71.363281c-4.332031 0-7.835938-3.507812-7.835938-7.835937s3.503907-7.835938 7.835938-7.835938h71.363281c4.328125 0 7.835938 3.507813 7.835938 7.835938s-3.507813 7.835937-7.835938 7.835937zm0 0"/><path d="m467.203125 277.476562h-71.914063c-4.328124 0-7.835937-3.507812-7.835937-7.835937s3.507813-7.835937 7.835937-7.835937h71.914063c4.328125 0 7.835937 3.507812 7.835937 7.835937s-3.507812 7.835937-7.835937 7.835937zm0 0"/><path d="m467.203125 311.6875h-71.914063c-4.328124 0-7.835937-3.507812-7.835937-7.835938 0-4.328124 3.507813-7.839843 7.835937-7.839843h71.914063c4.328125 0 7.835937 3.511719 7.835937 7.839843 0 4.328126-3.507812 7.835938-7.835937 7.835938zm0 0"/><path d="m467.203125 347.128906h-71.914063c-4.328124 0-7.835937-3.507812-7.835937-7.835937s3.507813-7.835938 7.835937-7.835938h71.914063c4.328125 0 7.835937 3.507813 7.835937 7.835938s-3.507812 7.835937-7.835937 7.835937zm0 0"/></g><path d="m383.890625 23.980469h-255.796875c-17.667969 0-31.988281 14.324219-31.988281 31.988281v382.859375c0 17.667969 14.324219 31.988281 31.988281 31.988281h255.796875c17.667969 0 31.992187-14.320312 31.992187-31.988281v-382.859375c0-17.664062-14.324218-31.988281-31.992187-31.988281zm0 0" fill="#e1ebf0"/><path d="m378.304688 122.308594c0 67.550781-54.761719 122.308594-122.3125 122.308594-67.546876 0-122.308594-54.757813-122.308594-122.308594 0-67.546875 54.761718-122.308594 122.308594-122.308594 67.550781 0 122.3125 54.761719 122.3125 122.308594zm0 0" fill="#f9d35a"/><path d="m338.050781 213.011719c-21.703125 19.644531-50.480469 31.609375-82.058593 31.609375-31.566407 0-60.351563-11.964844-82.054688-31.597656 13.4375-32.058594 45.117188-54.566407 82.054688-54.566407 36.925781 0 68.609374 22.507813 82.058593 54.554688zm0 0" fill="#95dae8"/><path d="m311.589844 102.851562c0 30.703126-24.890625 55.597657-55.597656 55.597657-30.703126 0-55.59375-24.894531-55.59375-55.597657 0-30.703124 24.890624-55.597656 55.59375-55.597656 30.707031 0 55.597656 24.894532 55.597656 55.597656zm0 0" fill="#ffe2c5"/><path d="m367.132812 308.898438h-222.277343c-4.328125 0-7.835938-3.507813-7.835938-7.835938s3.507813-7.839844 7.835938-7.839844h222.277343c4.328126 0 7.835938 3.511719 7.835938 7.839844s-3.507812 7.835938-7.835938 7.835938zm0 0" fill="#353a59"/><path d="m367.132812 343.113281h-222.277343c-4.328125 0-7.835938-3.507812-7.835938-7.835937s3.507813-7.835938 7.835938-7.835938h222.277343c4.328126 0 7.835938 3.507813 7.835938 7.835938s-3.507812 7.835937-7.835938 7.835937zm0 0" fill="#353a59"/><path d="m201.1875 378.546875h-56.332031c-4.328125 0-7.835938-3.507813-7.835938-7.835937 0-4.328126 3.507813-7.835938 7.835938-7.835938h56.332031c4.328125 0 7.835938 3.507812 7.835938 7.835938 0 4.328124-3.507813 7.835937-7.835938 7.835937zm0 0" fill="#353a59"/></svg>