<svg height="472pt" viewBox="-3 0 471 472" width="472pt" xmlns="http://www.w3.org/2000/svg"><path d="m424.5 280 32.585938 39.097656c4.789062 5.75 7.414062 13 7.414062 20.488282v132.414062h-40zm0 0" fill="#fec9a3"/><path d="m424.5 180.800781c0-11.488281-9.3125-20.800781-20.800781-20.800781h-134.398438c-11.488281 0-20.800781 9.3125-20.800781 20.800781v19.199219h176zm0 0" fill="#e0e0de"/><path d="m248.5 200h176v224h-176zm0 0" fill="#4db7e5"/><path d="m248.5 404v20h176v-196zm0 0" fill="#48add9"/><path d="m248.5 424v19.199219c0 11.488281 9.3125 20.800781 20.800781 20.800781h134.398438c11.488281 0 20.800781-9.3125 20.800781-20.800781v-19.199219zm0 0" fill="#e0e0de"/><path d="m296.5 232h80c8.835938 0 16 7.164062 16 16v128c0 8.835938-7.164062 16-16 16h-80c-8.835938 0-16-7.164062-16-16v-128c0-8.835938 7.164062-16 16-16zm0 0" fill="#348fd9"/><path d="m344.5 232h24v160h-24zm0 0" fill="#2a71ad"/><path d="m304.5 344h16v24h-16zm0 0" fill="#62a9e6"/><path d="m384.5 304c-8.835938-8.835938-23.164062-8.835938-32 0s-8.835938 23.164062 0 32l48 48-.71875 1.207031c-14.289062 23.804688-14.011719 53.613281.71875 77.144531v9.648438h40v-112zm0 0" fill="#fec9a3"/><path d="m192.5 64h-192v-32l96-32 96 32zm0 0" fill="#ffb531"/><path d="m88.5 24h16v16h-16zm0 0" fill="#e8770c"/><path d="m.5 136h192v32h-192zm0 0" fill="#ffb531"/><path d="m16.5 64h32v72h-32zm0 0" fill="#ffa912"/><path d="m80.5 64h32v72h-32zm0 0" fill="#ffa912"/><path d="m144.5 64h32v72h-32zm0 0" fill="#ffa912"/><path d="m16.5 64h32v16h-32zm0 0" fill="#e8770c"/><path d="m80.5 64h32v16h-32zm0 0" fill="#e8770c"/><path d="m144.5 64h32v16h-32zm0 0" fill="#e8770c"/><g fill="#60d1e0"><path d="m88.5 192h16v16h-16zm0 0"/><path d="m88.5 224h16v16h-16zm0 0"/><path d="m88.5 256h16v16h-16zm0 0"/><path d="m232.5 88h16v16h-16zm0 0"/><path d="m200.5 88h16v16h-16zm0 0"/><path d="m264.5 88h16v16h-16zm0 0"/><path d="m296.5 88h16v16h-16zm0 0"/><path d="m328.5 88h16v16h-16zm0 0"/><path d="m328.5 120h16v16h-16zm0 0"/></g><path d="m.5 336h192v128h-192zm0 0" fill="#348fd9"/><path d="m48.5 336h-48l16-40h40zm0 0" fill="#e94f4f"/><path d="m144.5 336h-48v-40h40zm0 0" fill="#e94f4f"/><path d="m96.5 336h-48l8-40h40zm0 0" fill="#e0e0de"/><path d="m192.5 336h-48l-8-40h40zm0 0" fill="#e0e0de"/><path d="m.5 336h48v8c0 13.253906-10.746094 24-24 24s-24-10.746094-24-24zm0 0" fill="#e04646"/><path d="m96.5 336h48v8c0 13.253906-10.746094 24-24 24s-24-10.746094-24-24zm0 0" fill="#e04646"/><path d="m48.5 336h48v8c0 13.253906-10.746094 24-24 24s-24-10.746094-24-24zm0 0" fill="#c2c2c0"/><path d="m144.5 336h48v8c0 13.253906-10.746094 24-24 24s-24-10.746094-24-24zm0 0" fill="#c2c2c0"/><path d="m32.5 400h56v32h-56zm0 0" fill="#60d1e0"/><path d="m120.5 400h40v64h-40zm0 0" fill="#60d1e0"/><path d="m32.5 400h56v16h-56zm0 0" fill="#5ac6d4"/><path d="m120.5 400h40v16h-40zm0 0" fill="#5ac6d4"/></svg>