<svg height="512pt" viewBox="0 0 512 512" width="512pt" xmlns="http://www.w3.org/2000/svg" xmlns:xlink="http://www.w3.org/1999/xlink"><linearGradient id="a" gradientUnits="userSpaceOnUse" x1="0" x2="512" y1="256" y2="256"><stop offset="0" stop-color="#00f2fe"/><stop offset=".0208" stop-color="#03effe"/><stop offset=".2931" stop-color="#24d2fe"/><stop offset=".5538" stop-color="#3cbdfe"/><stop offset=".7956" stop-color="#4ab0fe"/><stop offset="1" stop-color="#4facfe"/></linearGradient><path d="m415.605469 287.597656-5.914063-5.914062c-.582031-.582032-.71875-1.53125-.378906-2.347656l.152344-.375c.328125-.792969 1.242187-.960938 1.949218-.960938h8.363282c29.347656 0 53.222656-24.085938 53.222656-53.695312v-16.609376c0-14.265624-5.59375-27.59375-15.746094-37.523437-10-9.785156-23.308594-15.171875-37.476562-15.171875h-8.367188c-.328125 0-1.417968-.6875-1.980468-2.046875l-.09375-.222656c-.367188-.882813-.226563-1.832031.355468-2.414063l5.914063-5.914062c10.050781-10.050782 15.589843-23.417969 15.589843-37.632813 0-14.214843-5.539062-27.582031-15.589843-37.632812l-11.746094-11.742188c-10.050781-10.054687-23.414063-15.589843-37.632813-15.589843-14.214843 0-27.578124 5.535156-37.628906 15.589843l-5.917968 5.914063c-.582032.582031-1.527344.722656-2.382813.367187l-.339844-.140625c-.792969-.328125-.960937-1.242187-.960937-1.949218v-8.367188c.003906-29.34375-24.082032-53.21875-53.691406-53.21875h-16.609376c-29.609374 0-53.695312 23.875-53.695312 53.21875v8.367188c0 .707031-.167969 1.621093-.941406 1.9375l-.328125.136718c-.882813.367188-1.832031.230469-2.414063-.351562l-5.914062-5.917969c-10.050782-10.050781-23.417969-15.585937-37.632813-15.585937-14.214843 0-27.582031 5.535156-37.632812 15.585937l-11.742188 11.746094c-10.054687 10.050781-15.589843 23.417969-15.589843 37.632812 0 14.214844 5.535156 27.582031 15.585937 37.632813l5.917969 5.914062c.582031.582032.71875 1.53125.367187 2.382813l-.144531.339843c-.328125.792969-1.238281.960938-1.945312.960938h-8.367188c-29.34375 0-53.21875 24.085938-53.21875 53.695312v16.609376c0 14.265624 5.59375 27.59375 15.746094 37.523437 10 9.785156 23.308594 15.171875 37.472656 15.171875h8.367188c.328124 0 1.421874.6875 1.980468 2.039062l.09375.230469c.367188.882813.230469 1.832031-.351562 2.414063l-5.917969 5.914062c-20.75 20.75-20.75 54.515625 0 75.265625l11.746094 11.746094c20.75 20.75 54.515625 20.75 75.265625 0l5.914062-5.917969c.582032-.582031 1.53125-.71875 2.382813-.367187l.339843.144531c.792969.324219.960938 1.238281.960938 1.945312v8.363282c0 29.347656 24.085938 53.222656 53.695312 53.222656h16.609376c29.609374 0 53.695312-23.875 53.695312-53.222656v-8.363282c0-.707031.167969-1.621093.960938-1.945312l.308593-.128906c.882813-.367188 1.832031-.230469 2.414063.351562l5.914062 5.917969c20.75 20.75 54.515625 20.75 75.265625 0l11.746094-11.746094c20.75-20.75 20.75-54.515625-.003906-75.265625zm-34.195313 22.371094 5.914063 5.914062c5.152343 5.152344 5.152343 13.542969 0 18.695313l-11.746094 11.746094c-5.15625 5.15625-13.542969 5.152343-18.695313 0l-5.914062-5.914063c-12.074219-12.074218-30.148438-15.613281-46.066406-9.003906l-.210938.085938c-15.605468 6.445312-25.691406 21.722656-25.691406 38.921874v8.363282c0 7.167968-6.269531 13.222656-13.695312 13.222656h-16.609376c-7.421874 0-13.695312-6.054688-13.695312-13.222656v-8.363282c0-17.199218-10.085938-32.476562-25.691406-38.921874l-.238282-.097657c-5.3125-2.207031-10.871093-3.277343-16.367187-3.277343-10.9375 0-21.632813 4.253906-29.671875 12.289062l-5.914062 5.917969c-5.152344 5.15625-13.539063 5.152343-18.695313 0l-11.746094-11.746094c-5.152343-5.152344-5.152343-13.542969 0-18.695313l5.917969-5.914062c12.074219-12.074219 15.609375-30.148438 8.984375-46.101562l-.070313-.175782c-6.597656-15.964844-22.234374-26.691406-38.921874-26.691406h-8.367188c-7.410156 0-13.21875-5.574219-13.21875-12.695312v-16.609376c0-7.425781 6.054688-13.695312 13.21875-13.695312h8.367188c17.195312 0 32.472656-10.085938 38.949218-25.765625l.066406-.164063c6.601563-15.890624 3.0625-33.964843-9.011718-46.039062l-5.914063-5.914062c-2.496093-2.496094-3.871093-5.816407-3.871093-9.347657s1.375-6.851562 3.871093-9.347656l11.746094-11.746094c2.5-2.496093 5.816406-3.871093 9.347656-3.871093s6.851563 1.375 9.347657 3.871093l5.917968 5.914063c12.074219 12.074218 30.144532 15.613281 46.066406 9l.207032-.085938c15.605468-6.445312 25.691406-21.722656 25.691406-38.917968v-8.367188c0-7.164062 6.269531-13.21875 13.695312-13.21875h16.609376c7.425781 0 13.695312 6.054688 13.695312 13.21875v8.367188c0 17.195312 10.085938 32.472656 25.710938 38.925781l.21875.089843c15.890624 6.601563 33.960937 3.066407 46.039062-9.011718l5.914062-5.914063c2.496094-2.496093 5.816407-3.871093 9.347657-3.871093s6.851562 1.375 9.347656 3.871093l11.746094 11.746094c2.496093 2.496094 3.871093 5.816406 3.871093 9.347656s-1.375 6.851563-3.871093 9.347657l-5.917969 5.914062c-12.074219 12.074219-15.609375 30.148438-9 46.066406l.085938.210938c6.59375 15.964844 22.234374 26.691406 38.921874 26.691406h8.367188c7.410156 0 13.21875 5.574219 13.21875 12.695312v16.609376c0 7.421874-6.054688 13.695312-13.21875 13.695312h-8.367188c-17.195312 0-32.472656 10.085938-38.910156 25.675781l-.105468.253907c-6.601563 15.890624-3.066407 33.964843 9.011718 46.039062zm130.589844 85.03125v37c0 44.113281-35.886719 80-80 80-11.046875 0-20-8.953125-20-20s8.953125-20 20-20c22.054688 0 40-17.945312 40-40v-37c0-11.046875 8.953125-20 20-20s20 8.953125 20 20zm-161 97c0 11.046875-8.953125 20-20 20h-251c-44.113281 0-80-35.886719-80-80v-37c0-11.046875 8.953125-20 20-20s20 8.953125 20 20v37c0 22.054688 17.945312 40 40 40h251c11.046875 0 20 8.953125 20 20zm-21.734375-279.574219c7.808594 7.808594 7.808594 20.472657 0 28.285157l-30.714844 30.714843c-11.335937 11.332031-26.402343 17.574219-42.429687 17.574219s-31.09375-6.242188-42.425782-17.574219l-30.714843-30.714843c-7.8125-7.8125-7.8125-20.472657 0-28.285157 7.808593-7.808593 20.472656-7.808593 28.28125 0l25.828125 25.828125-.089844-91.234375c-.011719-11.042969 8.933594-20.007812 19.980469-20.019531h.019531c11.035156 0 19.988281 8.941406 20 19.980469l.089844 89.335937 23.890625-23.890625c7.808593-7.808593 20.472656-7.808593 28.285156 0zm0 0" fill="url(#a)"/></svg>