<svg height="512pt" viewBox="0 -1 512 512" width="512pt" xmlns="http://www.w3.org/2000/svg"><path d="m456 181.769531c17.671875 0 32 14.324219 32 32v272h-464v-272c0-17.675781 14.328125-32 32-32zm0 0" fill="#e0e0e0"/><path d="m64 229.769531h384v192h-384zm0 0" fill="#a6e7ff"/><path d="m296 453.769531c0 8.835938-7.164062 16-16 16h-48c-8.835938 0-16-7.164062-16-16h-208v16c0 17.671875 14.328125 32 32 32h432c17.671875 0 32-14.328125 32-32v-16zm0 0" fill="#eee"/><path d="m416 25.769531-22.855469-16-22.855469 16-22.855468-16-22.847656 16-22.859376-16-22.855468 16-22.855469-16-22.855469 16-22.855468-16-22.863282 16-22.855468-16-22.859376 16-22.863281-16-22.863281 16v396h320zm0 0" fill="#ffe082"/><path d="m150.792969 275.894531 33.9375-33.941406 45.257812 45.253906-33.941406 33.941407zm0 0" fill="#ff7043"/><path d="m184.734375 241.953125 45.257813 45.253906 16.96875-16.96875 73.535156-28.285156-90.503906-90.503906-28.289063 73.535156zm0 0" fill="#ff8a65"/><path d="m207.363281 309.835938 22.625-22.625 33.941407 33.941406c6.25 6.246094 6.25 16.378906 0 22.625-6.246094 6.25-16.378907 6.25-22.628907 0zm0 0" fill="#90a4ae"/><g fill="#fff"><path d="m297.878906 162.757812 33.9375-33.933593 11.3125 11.3125-33.9375 33.9375zm0 0"/><path d="m329.742188 200.292969 46.371093-12.425781 4.140625 15.457031-46.371094 12.421875zm0 0"/><path d="m256.203125 138.066406 12.425781-46.363281 15.453125 4.140625-12.421875 46.363281zm0 0"/><path d="m128 61.769531h16v96h-16zm0 0"/><path d="m160 61.769531h16v64h-16zm0 0"/><path d="m192 61.769531h16v32h-16zm0 0"/><path d="m368 301.769531h16v96h-16zm0 0"/><path d="m336 333.769531h16v64h-16zm0 0"/><path d="m304 365.769531h16v32h-16zm0 0"/></g><path d="m496 445.769531v-232c-.027344-22.082031-17.917969-39.976562-40-40h-32v-152.167969l-30.855469-21.601562-22.855469 16-22.847656-16-22.867187 16-22.847657-16-22.855468 16-22.871094-16-22.847656 16-22.863282-16-22.855468 16-22.867188-16-22.855468 16-22.871094-16-30.839844 21.601562v152.167969h-32c-22.082031.023438-39.972656 17.917969-40 40v232h-16v24c.0273438 22.078125 17.917969 39.972657 40 40h432c22.082031-.027343 39.972656-17.921875 40-40v-24zm-72-208h16v176h-16zm-320-207.832031 14.855469-10.402344 22.871093 16 22.859376-16 22.863281 16 22.855469-16 22.863281 16 22.847656-16 22.855469 16 22.855468-16 22.847657 16 22.867187-16 22.847656 16 22.855469-16 14.855469 10.402344v383.832031h-304zm-72 183.832031c0-13.257812 10.746094-24 24-24h32v32h-32v208h400v-208h-32v-32h32c13.253906 0 24 10.742188 24 24v232h-192v8c0 4.417969-3.582031 8-8 8h-48c-4.417969 0-8-3.582031-8-8v-8h-192zm56 24v176h-16v-176zm408 232c0 13.253907-10.746094 24-24 24h-432c-13.253906 0-24-10.746093-24-24v-8h193.367188c3.402343 9.582031 12.464843 15.984375 22.632812 16h48c10.167969-.015625 19.230469-6.417969 22.632812-16h193.367188zm0 0"/><path d="m334.855469 244.96875-107.910157-107.878906-32.105468 83.445312-15.761719 15.761719-39.589844 39.605469 56.558594 56.5625 11.3125-11.3125 28.289063 28.28125c9.371093 9.375 24.566406 9.378906 33.945312.007812 9.375-9.371094 9.378906-24.570312.007812-33.945312l-28.28125-28.28125 10.121094-10.117188zm-138.808594 64.871094-33.933594-33.9375 22.621094-22.628906 33.945313 33.941406zm62.226563 16.96875c2.078124 2.007812 2.914062 4.984375 2.179687 7.78125-.730469 2.796875-2.917969 4.980468-5.714844 5.710937-2.796875.734375-5.769531-.101562-7.777343-2.179687l-28.289063-28.28125 11.320313-11.273438zm-28.28125-50.914063-33.945313-33.941406 12.511719-12.511719 24.480468-63.632812 73.105469 73.101562-63.648437 24.457032zm0 0"/><path d="m128.167969 309.839844 11.3125-11.3125 33.945312 33.9375-11.3125 11.3125zm0 0"/></svg>