<svg height="464pt" viewBox="0 0 464 464" width="464pt" xmlns="http://www.w3.org/2000/svg"><path d="m416 416h48v48h-48zm0 0" fill="#ffa733"/><path d="m0 416h48v48h-48zm0 0" fill="#ffa733"/><path d="m416 0h48v48h-48zm0 0" fill="#00ccb3"/><path d="m0 0h48v48h-48zm0 0" fill="#00ccb3"/><path d="m464 232c0 13.253906-10.746094 24-24 24s-24-10.746094-24-24 10.746094-24 24-24 24 10.746094 24 24zm0 0" fill="#ff6243"/><path d="m48 232c0 13.253906-10.746094 24-24 24s-24-10.746094-24-24 10.746094-24 24-24 24 10.746094 24 24zm0 0" fill="#ff6243"/><path d="m304 376h-184v-35.359375c.03125-21.636719 14.5-40.589844 35.359375-46.320313l41.761719-11.359374 34.878906 29.039062 34.878906-29.039062 41.761719 11.359374c20.859375 5.730469 35.328125 24.683594 35.359375 46.320313v35.359375zm0 0" fill="#3d9ae2"/><path d="m266.878906 282.960938-34.878906 29.039062-34.878906-29.039062 10.878906-2.960938v-22.480469c14.832031 8.640625 33.167969 8.640625 48 0v22.480469zm0 0" fill="#ffdaaa"/><path d="m280 195.601562v20.398438c.007812 17.136719-9.144531 32.972656-24 41.519531-14.832031 8.640625-33.167969 8.640625-48 0-3.636719-2.070312-6.972656-4.625-9.921875-7.597656-9.042969-8.964844-14.117187-21.1875-14.078125-33.921875v-20.398438c15.109375 7.027344 31.378906 11.230469 48 12.398438 16.621094-1.167969 32.890625-5.371094 48-12.398438zm0 0" fill="#ffdaaa"/><path d="m288 138.480469v53.519531s-3.039062 1.519531-8 3.601562c-15.109375 7.027344-31.378906 11.230469-48 12.398438-16.621094-1.167969-32.890625-5.371094-48-12.398438-4.960938-2.082031-8-3.601562-8-3.601562v-53.519531l56 21.519531zm0 0" fill="#898890"/><path d="m256 257.519531v8c-14.832031 8.640625-33.167969 8.640625-48 0v-8c14.832031 8.640625 33.167969 8.640625 48 0zm0 0" fill="#f2ca96"/><path d="m152 336h16v40h-16zm0 0" fill="#1e81ce"/><path d="m296 336h16v40h-16zm0 0" fill="#1e81ce"/><path d="m165.65625 178.34375-21.65625-21.65625v-36.6875h-16v36.6875l-21.65625 21.65625 11.3125 11.3125 10.34375-10.34375v12.6875h16v-12.6875l10.34375 10.34375zm0 0" fill="#c6c5ca"/><path d="m309.65625 77.65625-11.3125-11.3125 56-56c1.5-1.5 3.535156-2.34375 5.65625-2.34375h32v16h-28.6875zm0 0" fill="#009986"/><path d="m154.34375 77.65625-53.65625-53.65625h-28.6875v-16h32c2.121094 0 4.15625.84375 5.65625 2.34375l56 56zm0 0" fill="#009986"/><path d="m392 456h-32c-2.121094 0-4.15625-.84375-5.65625-2.34375l-40-40 11.3125-11.3125 37.65625 37.65625h28.6875zm0 0" fill="#ee8700"/><path d="m104 448h-32v-16h28.6875l29.65625-29.65625 11.3125 11.3125-32 32c-1.5 1.5-3.535156 2.34375-5.65625 2.34375zm0 0" fill="#ee8700"/><path d="m328 224h64v16h-64zm0 0" fill="#ed1c24"/><path d="m72 224h64v16h-64zm0 0" fill="#ed1c24"/><path d="m336 120-48 18.480469-56 21.519531-56-21.519531-48-18.480469 104-40zm0 0" fill="#acabb1"/></svg>