<svg height="60px" viewBox="0 0 64 64" width="60px" xmlns="http://www.w3.org/2000/svg" xmlns:xlink="http://www.w3.org/1999/xlink"><linearGradient id="New_Gradient_Swatch_3" gradientUnits="userSpaceOnUse" x1="32" x2="32" y1="67.164" y2="1.279"><stop offset="0" stop-color="#006df0"/><stop offset="1" stop-color="#00e7f0"/></linearGradient><linearGradient id="New_Gradient_Swatch_3-3" x1="11" x2="11" xlink:href="#New_Gradient_Swatch_3" y1="67.164" y2="1.279"/><linearGradient id="New_Gradient_Swatch_3-4" x1="15" x2="15" xlink:href="#New_Gradient_Swatch_3" y1="67.164" y2="1.279"/><linearGradient id="New_Gradient_Swatch_3-5" x1="19" x2="19" xlink:href="#New_Gradient_Swatch_3" y1="67.164" y2="1.279"/><linearGradient id="New_Gradient_Swatch_3-6" x1="44.5" x2="44.5" xlink:href="#New_Gradient_Swatch_3" y1="67.164" y2="1.279"/><linearGradient id="New_Gradient_Swatch_3-7" x1="36" x2="36" xlink:href="#New_Gradient_Swatch_3" y1="67.164" y2="1.279"/><linearGradient id="New_Gradient_Swatch_3-8" x1="43" x2="43" xlink:href="#New_Gradient_Swatch_3" y1="67.164" y2="1.279"/><linearGradient id="New_Gradient_Swatch_3-9" x1="51.5" x2="51.5" xlink:href="#New_Gradient_Swatch_3" y1="67.164" y2="1.279"/><linearGradient id="New_Gradient_Swatch_3-11" x1="46.5" x2="46.5" xlink:href="#New_Gradient_Swatch_3" y1="67.164" y2="1.279"/><linearGradient id="New_Gradient_Swatch_3-12" x1="11.5" x2="11.5" xlink:href="#New_Gradient_Swatch_3" y1="67.164" y2="1.279"/><linearGradient id="New_Gradient_Swatch_3-13" x1="17" x2="17" xlink:href="#New_Gradient_Swatch_3" y1="67.164" y2="1.279"/><linearGradient id="New_Gradient_Swatch_3-14" x1="22" x2="22" xlink:href="#New_Gradient_Swatch_3" y1="67.164" y2="1.279"/><linearGradient id="New_Gradient_Swatch_3-15" x1="13" x2="13" xlink:href="#New_Gradient_Swatch_3" y1="67.164" y2="1.279"/><linearGradient id="New_Gradient_Swatch_3-16" x1="18" x2="18" xlink:href="#New_Gradient_Swatch_3" y1="67.164" y2="1.279"/><linearGradient id="New_Gradient_Swatch_3-17" x1="23.5" x2="23.5" xlink:href="#New_Gradient_Swatch_3" y1="67.164" y2="1.279"/><linearGradient id="New_Gradient_Swatch_3-18" x1="16.5" x2="16.5" xlink:href="#New_Gradient_Swatch_3" y1="67.164" y2="1.279"/><linearGradient id="New_Gradient_Swatch_3-19" x1="24" x2="24" xlink:href="#New_Gradient_Swatch_3" y1="67.164" y2="1.279"/><linearGradient id="New_Gradient_Swatch_3-21" x1="17.5" x2="17.5" xlink:href="#New_Gradient_Swatch_3" y1="67.164" y2="1.279"/><linearGradient id="New_Gradient_Swatch_3-24" x1="23" x2="23" xlink:href="#New_Gradient_Swatch_3" y1="67.164" y2="1.279"/><linearGradient id="New_Gradient_Swatch_3-26" x1="25" x2="25" xlink:href="#New_Gradient_Swatch_3" y1="67.164" y2="1.279"/><linearGradient id="New_Gradient_Swatch_3-28" x1="20" x2="20" xlink:href="#New_Gradient_Swatch_3" y1="67.164" y2="1.279"/><linearGradient id="New_Gradient_Swatch_3-29" x1="27" x2="27" xlink:href="#New_Gradient_Swatch_3" y1="67.164" y2="1.279"/><g id="Picture-2" data-name="Picture"><path d="m57 2h-50a5.006 5.006 0 0 0 -5 5v36a5.006 5.006 0 0 0 5 5h17v6h-10a4 4 0 0 0 0 8h36a4 4 0 0 0 0-8h-10v-6h17a5.006 5.006 0 0 0 5-5v-36a5.006 5.006 0 0 0 -5-5zm-5 56a2 2 0 0 1 -2 2h-36a2 2 0 0 1 0-4h36a2 2 0 0 1 2 2zm-14-4h-12v-6h12zm22-11a3 3 0 0 1 -3 3h-50a3 3 0 0 1 -3-3v-36a3 3 0 0 1 3-3h50a3 3 0 0 1 3 3z" fill="url(#New_Gradient_Swatch_3)"/><path d="m57 6h-50a1 1 0 0 0 -1 1v34a1 1 0 0 0 1 1h50a1 1 0 0 0 1-1v-34a1 1 0 0 0 -1-1zm-1 2v4h-48v-4zm-48 6h23v26h-23zm25 26v-26h23v26z" fill="url(#New_Gradient_Swatch_3)"/><path d="m10 9h2v2h-2z" fill="url(#New_Gradient_Swatch_3-3)"/><path d="m14 9h2v2h-2z" fill="url(#New_Gradient_Swatch_3-4)"/><path d="m18 9h2v2h-2z" fill="url(#New_Gradient_Swatch_3-5)"/><path d="m53 16h-17a1 1 0 0 0 -1 1v10a1 1 0 0 0 1 1h17a1 1 0 0 0 1-1v-10a1 1 0 0 0 -1-1zm-1 2v7.4l-3.219-4.024a1 1 0 0 0 -1.562 0l-1.6 2-2.851-3.959a1 1 0 0 0 -.808-.417 1 1 0 0 0 -.812.419l-4.148 5.805v-7.224zm-4.488 8-.676-.94 1.164-1.46 1.919 2.4zm-2.464 0h-6.148l3.06-4.284z" fill="url(#New_Gradient_Swatch_3-6)"/><path d="m35 30h2v2h-2z" fill="url(#New_Gradient_Swatch_3-7)"/><path d="m39 30h8v2h-8z" fill="url(#New_Gradient_Swatch_3-8)"/><path d="m49 30h5v2h-5z" fill="url(#New_Gradient_Swatch_3-9)"/><path d="m35 33h2v2h-2z" fill="url(#New_Gradient_Swatch_3-7)"/><path d="m39 33h15v2h-15z" fill="url(#New_Gradient_Swatch_3-11)"/><path d="m10 16h3v2h-3z" fill="url(#New_Gradient_Swatch_3-12)"/><path d="m15 16h4v2h-4z" fill="url(#New_Gradient_Swatch_3-13)"/><path d="m21 16h2v2h-2z" fill="url(#New_Gradient_Swatch_3-14)"/><path d="m12 19h2v2h-2z" fill="url(#New_Gradient_Swatch_3-15)"/><path d="m16 19h4v2h-4z" fill="url(#New_Gradient_Swatch_3-16)"/><path d="m22 19h3v2h-3z" fill="url(#New_Gradient_Swatch_3-17)"/><path d="m14 22h5v2h-5z" fill="url(#New_Gradient_Swatch_3-18)"/><path d="m21 22h6v2h-6z" fill="url(#New_Gradient_Swatch_3-19)"/><path d="m10 30h2v2h-2z" fill="url(#New_Gradient_Swatch_3-3)"/><path d="m14 30h7v2h-7z" fill="url(#New_Gradient_Swatch_3-21)"/><path d="m12 33h2v2h-2z" fill="url(#New_Gradient_Swatch_3-15)"/><path d="m16 33h4v2h-4z" fill="url(#New_Gradient_Swatch_3-16)"/><path d="m22 33h2v2h-2z" fill="url(#New_Gradient_Swatch_3-24)"/><path d="m15 36h5v2h-5z" fill="url(#New_Gradient_Swatch_3-21)"/><path d="m22 36h6v2h-6z" fill="url(#New_Gradient_Swatch_3-26)"/><path d="m12 26h2v2h-2z" fill="url(#New_Gradient_Swatch_3-15)"/><path d="m16 26h8v2h-8z" fill="url(#New_Gradient_Swatch_3-28)"/><path d="m26 26h2v2h-2z" fill="url(#New_Gradient_Swatch_3-29)"/><path d="m35 36h19v2h-19z" fill="url(#New_Gradient_Swatch_3-6)"/></g></svg>
